<svg xmlns="http://www.w3.org/2000/svg" xmlns:xlink="http://www.w3.org/1999/xlink" width="500" zoomAndPan="magnify" viewBox="0 0 375 374.999991" height="500" preserveAspectRatio="xMidYMid meet" version="1.0"><defs><clipPath id="b2057ff762"><path d="M 3.480469 43.148438 L 371.730469 43.148438 L 371.730469 331.898438 L 3.480469 331.898438 Z M 3.480469 43.148438 " clip-rule="nonzero"/></clipPath></defs><g clip-path="url(#b2057ff762)"><path fill="#264663" d="M 367.023438 43.148438 L 371.730469 43.148438 C 371.742188 43.976562 371.75 44.804688 371.757812 45.628906 L 371.765625 46.335938 L 371.769531 47.023438 L 371.777344 47.652344 C 371.726562 48.320312 371.550781 48.863281 371.320312 49.488281 C 371.261719 49.773438 371.207031 50.058594 371.15625 50.347656 C 370.714844 52.363281 369.625 54.347656 368.457031 56.03125 L 368.046875 56.03125 L 367.894531 56.382812 C 366.597656 58.761719 364.011719 60.621094 361.800781 62.078125 L 361.296875 62.371094 L 360.886719 62.371094 L 360.886719 62.78125 L 360.585938 62.949219 C 359.625 63.480469 358.667969 64.019531 357.714844 64.570312 C 355.152344 66.039062 352.554688 67.367188 349.855469 68.578125 C 348.347656 69.253906 346.867188 69.976562 345.390625 70.726562 C 344.859375 70.996094 344.324219 71.261719 343.789062 71.523438 C 336.882812 74.914062 329.429688 78.949219 325.023438 85.515625 C 324.28125 86.757812 323.652344 88.054688 323.039062 89.367188 C 322.953125 89.550781 322.867188 89.734375 322.777344 89.921875 C 321.148438 93.644531 321.140625 98.125 321.570312 102.109375 C 321.824219 104.257812 322.28125 106.230469 323.246094 108.179688 L 323.511719 108.765625 C 323.960938 109.597656 324.476562 110.378906 325 111.167969 L 325.289062 111.65625 L 325.289062 112.0625 L 325.699219 112.0625 C 325.964844 112.375 325.964844 112.375 326.289062 112.816406 C 326.949219 113.695312 327.660156 114.507812 328.410156 115.308594 L 328.730469 115.65625 C 329.136719 116.089844 329.539062 116.515625 329.964844 116.921875 L 330.199219 117.175781 L 330.199219 117.585938 L 330.609375 117.585938 L 330.609375 117.996094 L 331.003906 118.160156 L 331.425781 118.402344 L 331.632812 119.015625 L 332.042969 119.015625 L 332.042969 119.425781 L 332.4375 119.59375 L 332.859375 119.835938 L 333.0625 120.449219 L 333.433594 120.628906 C 334.027344 120.933594 334.300781 121.351562 334.699219 121.878906 L 335.160156 122.328125 L 335.519531 122.699219 L 335.519531 123.105469 L 336.132812 123.3125 C 336.582031 123.808594 336.582031 123.808594 336.953125 124.332031 L 336.953125 124.742188 L 337.359375 124.742188 L 337.566406 125.5625 L 337.972656 125.5625 C 338.296875 125.964844 338.601562 126.375 338.894531 126.800781 L 339.167969 127.191406 C 339.453125 127.601562 339.738281 128.011719 340.019531 128.421875 L 340.28125 128.800781 C 342.082031 131.429688 343.890625 134.121094 345.234375 137.019531 C 345.507812 137.558594 345.804688 138.0625 346.121094 138.574219 C 346.785156 139.667969 347.339844 140.792969 347.882812 141.945312 L 348.175781 142.5625 C 348.75 143.78125 349.316406 145 349.867188 146.226562 L 350.039062 146.613281 C 350.371094 147.363281 350.558594 148.0625 350.660156 148.871094 L 351.066406 148.871094 C 351.171875 149.160156 351.273438 149.453125 351.375 149.742188 L 351.546875 150.230469 C 351.679688 150.714844 351.679688 150.714844 351.679688 151.53125 L 352.089844 151.53125 C 352.964844 154.105469 353.816406 156.683594 354.621094 159.277344 L 354.828125 159.933594 C 355.179688 161.070312 355.476562 162.191406 355.691406 163.359375 C 355.804688 163.960938 355.933594 164.515625 356.175781 165.078125 C 356.449219 165.808594 356.570312 166.546875 356.695312 167.316406 C 356.746094 167.628906 356.800781 167.9375 356.851562 168.25 L 356.929688 168.703125 C 357.113281 169.78125 357.324219 170.847656 357.609375 171.902344 C 357.859375 172.90625 357.988281 173.917969 358.113281 174.945312 L 358.191406 175.578125 C 358.535156 178.464844 358.800781 181.355469 359.046875 184.25 L 359.09375 184.78125 C 359.492188 189.546875 359.339844 194.410156 359.070312 199.179688 L 359.046875 199.625 C 358.957031 201.222656 358.820312 202.792969 358.523438 204.371094 C 358.429688 204.933594 358.378906 205.484375 358.34375 206.054688 C 358.128906 208.839844 357.515625 211.585938 356.988281 214.324219 L 356.90625 214.738281 C 356.421875 217.246094 355.910156 219.675781 355.082031 222.09375 C 354.742188 223.09375 354.429688 224.105469 354.148438 225.121094 C 353.0625 228.988281 351.570312 232.777344 349.839844 236.394531 C 349.59375 236.921875 349.34375 237.453125 349.097656 237.980469 L 348.914062 238.371094 C 348.460938 239.34375 348.019531 240.320312 347.589844 241.304688 L 347.179688 241.304688 L 347.105469 241.652344 C 346.699219 243.121094 345.792969 244.46875 344.996094 245.757812 C 344.75 246.171875 344.523438 246.59375 344.316406 247.03125 L 343.90625 247.03125 L 343.855469 247.355469 C 343.644531 248.039062 343.261719 248.597656 342.871094 249.1875 L 342.621094 249.574219 C 341.425781 251.390625 340.113281 253.117188 338.800781 254.851562 C 338.453125 255.320312 338.113281 255.800781 337.78125 256.28125 L 337.359375 256.84375 L 336.953125 256.84375 L 336.796875 257.1875 C 336.492188 257.753906 336.125 258.230469 335.722656 258.738281 L 335.289062 259.289062 L 334.90625 259.707031 L 334.496094 259.707031 L 334.496094 260.117188 C 334.160156 260.460938 333.820312 260.804688 333.472656 261.140625 L 333.027344 261.714844 L 332.65625 262.160156 L 332.246094 262.160156 L 332.042969 262.773438 C 331.746094 263.03125 331.449219 263.285156 331.144531 263.527344 C 330.769531 263.824219 330.769531 263.824219 330.289062 264.320312 C 329.789062 264.820312 329.789062 264.820312 329.226562 265.265625 C 328.753906 265.597656 328.753906 265.597656 328.5625 266.046875 L 328.152344 266.046875 L 328.152344 266.457031 C 327.722656 266.855469 327.722656 266.855469 327.15625 267.300781 L 326.597656 267.75 L 326.109375 268.09375 L 325.699219 268.09375 L 325.699219 268.5 L 325.289062 268.5 L 325.289062 268.910156 L 324.472656 269.113281 L 324.472656 269.523438 L 323.449219 269.933594 L 323.449219 270.339844 C 323.097656 270.632812 323.097656 270.632812 322.613281 270.964844 L 322.085938 271.324219 L 321.53125 271.695312 L 320.980469 272.074219 C 319.972656 272.757812 319.972656 272.757812 319.5625 273 L 319.152344 273 L 319.152344 273.410156 C 318.820312 273.625 318.476562 273.828125 318.128906 274.023438 C 317.890625 274.171875 317.652344 274.324219 317.414062 274.472656 C 314.492188 276.304688 311.460938 277.945312 308.308594 279.339844 L 307.894531 279.527344 C 306.945312 279.949219 305.992188 280.363281 305.035156 280.769531 L 304.621094 280.949219 C 304.214844 281.121094 303.808594 281.292969 303.398438 281.460938 L 302.683594 281.757812 C 301.882812 282.027344 301.167969 282.121094 300.332031 282.203125 L 300.332031 282.609375 L 299.101562 282.609375 L 299.101562 283.019531 C 298.675781 283.125 298.25 283.226562 297.824219 283.328125 L 297.105469 283.5 C 296.445312 283.632812 296.445312 283.632812 295.625 283.632812 L 295.625 284.042969 L 292.628906 284.640625 L 292.085938 284.75 C 291.707031 284.824219 291.328125 284.898438 290.949219 284.972656 L 290.386719 285.078125 L 289.878906 285.175781 L 289.488281 285.269531 L 289.285156 285.472656 C 288.996094 285.527344 288.707031 285.574219 288.414062 285.613281 L 287.863281 285.6875 L 287.261719 285.769531 L 286.644531 285.851562 C 284.730469 286.101562 282.816406 286.320312 280.894531 286.496094 L 280.28125 286.554688 C 275.476562 286.984375 270.726562 287.085938 265.925781 286.585938 C 265.292969 286.519531 264.660156 286.488281 264.027344 286.496094 C 263.300781 286.496094 263.300781 286.496094 262.6875 286.292969 C 262.394531 286.253906 262.097656 286.222656 261.804688 286.195312 L 261.273438 286.148438 L 260.707031 286.101562 C 259.324219 285.972656 257.941406 285.84375 256.5625 285.679688 L 255.804688 285.589844 C 255.128906 285.476562 254.53125 285.289062 253.890625 285.066406 C 253.414062 284.988281 252.9375 284.921875 252.457031 284.859375 C 251.035156 284.648438 249.648438 284.375 248.257812 284.011719 C 247.542969 283.835938 246.828125 283.6875 246.105469 283.542969 C 244.667969 283.257812 243.3125 282.9375 241.945312 282.394531 C 241.101562 282.089844 240.234375 281.914062 239.359375 281.722656 C 238.667969 281.570312 237.996094 281.382812 237.320312 281.179688 L 237.320312 280.769531 L 236.628906 280.71875 C 235.742188 280.609375 235.003906 280.3125 234.183594 279.964844 C 233.273438 279.605469 232.332031 279.371094 231.386719 279.132812 L 231.386719 278.726562 L 230.160156 278.726562 C 230.121094 278.84375 230.085938 278.957031 230.046875 279.078125 C 229.769531 279.933594 229.464844 280.75 229.097656 281.574219 C 228.785156 282.375 228.558594 283.207031 228.3125 284.03125 C 228.085938 284.738281 227.792969 285.402344 227.5 286.085938 C 227.296875 286.714844 227.109375 287.34375 226.917969 287.976562 C 226.511719 289.300781 226.0625 290.609375 225.621094 291.921875 C 225.449219 292.441406 225.277344 292.960938 225.105469 293.480469 C 224.46875 295.421875 223.804688 297.351562 223.078125 299.261719 C 222.785156 300.042969 222.523438 300.816406 222.289062 301.617188 C 221.984375 302.65625 221.605469 303.65625 221.195312 304.65625 L 220.976562 305.199219 C 220.398438 306.621094 219.769531 308.015625 219.113281 309.398438 C 218.984375 309.675781 218.855469 309.957031 218.730469 310.234375 C 217.859375 312.128906 216.917969 313.953125 215.839844 315.738281 L 215.582031 316.160156 C 215.316406 316.601562 215.046875 317.039062 214.777344 317.476562 L 214.527344 317.886719 C 213.996094 318.730469 213.417969 319.480469 212.769531 320.238281 C 212.445312 320.675781 212.128906 321.113281 211.8125 321.558594 L 211.542969 321.875 L 211.132812 321.875 L 211.132812 322.28125 C 210.675781 322.792969 210.28125 323.222656 209.664062 323.523438 L 209.292969 323.714844 L 209.121094 324.085938 C 208.179688 325.84375 205.480469 327.179688 203.820312 328.226562 C 201.90625 329.339844 199.878906 330.085938 197.769531 330.730469 L 197.261719 330.886719 C 196.285156 331.175781 195.351562 331.359375 194.339844 331.449219 C 193.628906 331.515625 192.984375 331.667969 192.3125 331.894531 C 192.015625 331.914062 191.714844 331.921875 191.417969 331.921875 L 190.875 331.925781 L 190.289062 331.929688 L 189.679688 331.929688 C 189.257812 331.929688 188.832031 331.933594 188.410156 331.933594 C 187.765625 331.933594 187.117188 331.9375 186.472656 331.941406 C 186.0625 331.941406 185.648438 331.941406 185.238281 331.941406 L 184.65625 331.945312 C 183.574219 331.941406 182.695312 331.828125 181.671875 331.484375 C 181.316406 331.425781 180.957031 331.375 180.597656 331.332031 C 177.933594 330.902344 175.386719 330.023438 173.082031 328.621094 C 172.675781 328.410156 172.265625 328.207031 171.851562 328.007812 L 171.851562 327.597656 L 171.40625 327.546875 C 170.710938 327.363281 170.328125 327.066406 169.808594 326.578125 L 169.808594 326.167969 L 169.460938 326.121094 C 168.824219 325.910156 168.476562 325.550781 167.992188 325.09375 C 167.160156 324.324219 167.160156 324.324219 166.289062 323.597656 C 165.683594 323.074219 165.179688 322.519531 164.664062 321.910156 C 164.265625 321.441406 163.851562 320.988281 163.4375 320.53125 C 162.773438 319.785156 162.171875 319.03125 161.625 318.191406 L 161.625 317.785156 L 161.214844 317.785156 L 160.894531 317.207031 C 160.523438 316.5625 160.132812 315.933594 159.730469 315.304688 L 159.355469 314.710938 C 159.101562 314.320312 158.847656 313.929688 158.585938 313.546875 C 157.339844 311.648438 156.480469 309.601562 155.589844 307.515625 C 155.292969 306.820312 154.984375 306.132812 154.636719 305.457031 C 154.25 304.699219 153.945312 303.925781 153.65625 303.125 L 153.339844 302.261719 L 153.183594 301.832031 C 152.960938 301.238281 152.726562 300.648438 152.492188 300.058594 C 152.066406 298.953125 151.710938 297.835938 151.375 296.703125 C 151.230469 296.234375 151.066406 295.769531 150.882812 295.316406 C 150.480469 294.285156 150.230469 293.207031 149.953125 292.136719 C 149.835938 291.695312 149.707031 291.253906 149.5625 290.820312 C 149.359375 290.214844 149.1875 289.609375 149.023438 288.996094 L 148.84375 288.324219 L 148.65625 287.621094 C 148.269531 286.167969 147.882812 284.71875 147.457031 283.277344 C 146.484375 279.921875 146.484375 279.921875 146.484375 278.519531 L 146.011719 278.722656 C 144.535156 279.347656 143.066406 279.890625 141.535156 280.355469 C 140.117188 280.769531 140.117188 280.769531 138.75 281.308594 C 138.125 281.578125 137.542969 281.738281 136.882812 281.890625 C 136.460938 281.996094 136.0625 282.132812 135.652344 282.277344 C 134.179688 282.777344 132.65625 283.085938 131.140625 283.429688 L 130.480469 283.578125 C 129.757812 283.742188 129.035156 283.90625 128.316406 284.066406 L 127.621094 284.226562 C 126.324219 284.511719 125.023438 284.761719 123.710938 284.96875 C 123.25 285.050781 122.792969 285.152344 122.339844 285.277344 C 121.289062 285.554688 120.214844 285.660156 119.132812 285.78125 L 118.449219 285.859375 C 117.769531 285.9375 117.089844 286.011719 116.410156 286.085938 L 115.835938 286.152344 C 109.976562 286.796875 104.085938 286.800781 98.203125 286.613281 L 97.425781 286.585938 L 96.707031 286.5625 L 96.070312 286.539062 C 95.542969 286.496094 95.542969 286.496094 94.929688 286.292969 C 94.636719 286.253906 94.339844 286.222656 94.042969 286.195312 L 93.515625 286.148438 L 92.949219 286.101562 C 87.683594 285.617188 87.683594 285.617188 85.648438 285.007812 C 85.074219 284.851562 84.507812 284.757812 83.921875 284.667969 C 82.765625 284.488281 81.671875 284.1875 80.554688 283.855469 C 79.585938 283.574219 78.605469 283.332031 77.625 283.101562 C 76.882812 282.921875 76.199219 282.695312 75.492188 282.40625 C 75.195312 282.335938 74.898438 282.273438 74.597656 282.214844 C 73.992188 282.089844 73.449219 281.933594 72.886719 281.679688 C 72.308594 281.421875 71.816406 281.273438 71.199219 281.179688 L 71.199219 280.769531 L 70.5625 280.703125 C 69.765625 280.566406 69.195312 280.34375 68.472656 279.992188 C 67.6875 279.613281 66.910156 279.253906 66.097656 278.941406 C 65.113281 278.5625 64.183594 278.09375 63.246094 277.617188 C 62.296875 277.136719 61.332031 276.695312 60.355469 276.273438 L 60.355469 275.863281 L 59.921875 275.800781 C 59.246094 275.636719 58.707031 275.386719 58.105469 275.042969 L 57.898438 274.636719 C 57.425781 274.421875 56.949219 274.214844 56.46875 274.023438 L 56.058594 273.816406 L 56.058594 273.410156 L 55.699219 273.332031 C 55.234375 273.203125 54.847656 273.023438 54.421875 272.796875 L 54.421875 272.386719 L 53.808594 272.386719 L 53.808594 271.976562 L 52.785156 271.773438 L 52.785156 271.363281 L 52.390625 271.289062 L 51.964844 271.160156 L 51.761719 270.75 C 51.472656 270.574219 51.179688 270.410156 50.878906 270.253906 C 50.246094 269.917969 49.648438 269.582031 49.101562 269.113281 L 49.101562 268.707031 L 48.488281 268.707031 L 48.488281 268.296875 L 48.078125 268.296875 C 47.796875 268.039062 47.796875 268.039062 47.464844 267.683594 C 47.050781 267.242188 46.695312 266.894531 46.171875 266.585938 C 45.59375 266.234375 45.136719 265.839844 44.640625 265.382812 C 44.042969 264.832031 43.4375 264.292969 42.824219 263.761719 C 41.796875 262.867188 40.84375 261.910156 39.882812 260.949219 L 39.351562 260.417969 C 36.53125 257.597656 36.53125 257.597656 36.214844 256.640625 L 35.804688 256.640625 C 35.464844 256.234375 35.136719 255.816406 34.820312 255.386719 C 34.644531 255.152344 34.46875 254.917969 34.292969 254.683594 L 34.023438 254.324219 C 33.695312 253.902344 33.351562 253.496094 33.007812 253.085938 C 32.460938 252.417969 31.960938 251.714844 31.457031 251.015625 L 31.105469 250.527344 C 29.773438 248.671875 28.542969 246.769531 27.417969 244.78125 C 27.296875 244.570312 27.175781 244.359375 27.050781 244.144531 C 26.707031 243.542969 26.363281 242.941406 26.019531 242.339844 C 25.855469 242.046875 25.6875 241.753906 25.519531 241.460938 C 23.652344 238.183594 23.652344 238.183594 23.101562 236.679688 C 22.875 236.085938 22.601562 235.523438 22.328125 234.953125 C 21.773438 233.769531 21.324219 232.570312 20.90625 231.335938 C 20.648438 230.574219 20.367188 229.816406 20.058594 229.070312 C 19.613281 227.96875 19.265625 226.847656 18.925781 225.710938 L 18.738281 225.082031 C 18.617188 224.671875 18.492188 224.261719 18.371094 223.851562 C 18.242188 223.414062 18.109375 222.976562 17.972656 222.539062 C 16.898438 218.996094 16.277344 215.308594 15.753906 211.652344 L 15.640625 210.859375 C 15.574219 210.371094 15.511719 209.878906 15.449219 209.390625 C 15.386719 208.890625 15.316406 208.390625 15.242188 207.890625 C 14.777344 204.464844 14.847656 201.003906 14.847656 197.554688 L 14.847656 197.039062 C 14.84375 192.796875 14.878906 188.582031 15.410156 184.363281 L 15.476562 183.839844 C 15.695312 182.160156 15.996094 180.515625 16.433594 178.875 C 16.660156 177.984375 16.8125 177.085938 16.96875 176.183594 C 17.230469 174.769531 17.539062 173.402344 17.992188 172.03125 C 18.257812 171.222656 18.496094 170.40625 18.734375 169.589844 L 18.996094 168.699219 C 19.136719 168.226562 19.273438 167.75 19.414062 167.273438 L 19.566406 166.753906 L 19.6875 166.332031 C 19.875 165.761719 20.085938 165.207031 20.296875 164.644531 C 20.453125 164.230469 20.605469 163.8125 20.753906 163.394531 C 21.472656 161.40625 22.234375 159.445312 23.03125 157.488281 L 23.308594 156.804688 C 23.953125 155.230469 24.644531 153.683594 25.371094 152.144531 L 25.632812 151.585938 C 27.101562 148.46875 28.570312 145.371094 30.304688 142.394531 C 30.671875 141.746094 31.003906 141.09375 31.328125 140.425781 C 31.777344 139.507812 32.285156 138.671875 32.867188 137.832031 C 33.183594 137.363281 33.460938 136.871094 33.738281 136.378906 C 34.921875 134.324219 36.328125 132.429688 37.722656 130.515625 C 38.21875 129.832031 38.714844 129.148438 39.207031 128.460938 L 39.453125 128.117188 C 39.808594 127.625 40.136719 127.132812 40.4375 126.605469 L 40.714844 126.175781 L 41.125 126.175781 L 41.125 125.5625 L 41.53125 125.5625 L 41.707031 125.195312 C 41.921875 124.78125 42.152344 124.410156 42.417969 124.027344 L 42.695312 123.621094 L 42.992188 123.195312 L 43.292969 122.757812 C 44.007812 121.726562 44.742188 120.707031 45.492188 119.699219 C 45.84375 119.214844 45.84375 119.214844 46.15625 118.648438 L 46.441406 118.199219 L 46.851562 118.199219 C 46.898438 118.058594 46.949219 117.921875 46.996094 117.777344 C 47.320312 117.042969 47.753906 116.414062 48.207031 115.757812 C 49.0625 114.503906 49.835938 113.222656 50.574219 111.898438 C 50.894531 111.335938 51.226562 110.785156 51.570312 110.238281 C 53.355469 107.269531 54.972656 103.636719 55.066406 100.136719 C 55.167969 98.589844 55.167969 98.589844 54.832031 97.136719 C 54.761719 96.65625 54.699219 96.175781 54.640625 95.691406 C 54.085938 91.398438 52.25 87.882812 49.652344 84.445312 C 49.335938 84.03125 49.335938 84.03125 48.898438 83.84375 L 48.898438 83.433594 L 48.488281 83.433594 C 48.15625 83.152344 48.15625 83.152344 47.875 82.820312 L 47.875 82.414062 L 47.464844 82.414062 L 47.464844 82.003906 L 47.058594 82.003906 L 47.058594 81.59375 C 46.945312 81.546875 46.835938 81.5 46.722656 81.449219 C 46.105469 81.113281 45.582031 80.679688 45.035156 80.238281 C 43.679688 79.167969 42.234375 78.320312 40.714844 77.503906 L 40.714844 77.097656 L 40.371094 77.027344 C 39.8125 76.867188 39.367188 76.621094 38.863281 76.335938 C 37.707031 75.691406 36.527344 75.105469 35.332031 74.539062 L 34.707031 74.242188 C 33.398438 73.621094 32.078125 73.03125 30.738281 72.472656 C 29.878906 72.101562 29.03125 71.703125 28.183594 71.300781 C 27.394531 70.933594 26.601562 70.578125 25.804688 70.238281 C 24.027344 69.480469 22.332031 68.605469 20.632812 67.683594 C 20.140625 67.421875 19.644531 67.179688 19.144531 66.933594 C 17.066406 65.902344 15.175781 64.589844 13.285156 63.257812 C 13.015625 63.070312 12.746094 62.886719 12.472656 62.703125 C 12.128906 62.464844 11.792969 62.214844 11.460938 61.964844 L 11.460938 61.554688 L 11.050781 61.554688 L 11.050781 61.144531 L 10.71875 61.015625 C 10.042969 60.628906 9.496094 60.113281 9.003906 59.507812 L 9.003906 59.101562 L 8.59375 59.101562 C 6.472656 56.816406 4.765625 53.378906 4.042969 50.359375 C 3.898438 49.652344 3.851562 48.984375 3.890625 48.261719 L 3.480469 48.261719 L 3.480469 44.582031 C 9.140625 45.34375 9.140625 45.34375 11.746094 45.925781 C 12.78125 46.15625 13.8125 46.339844 14.859375 46.5 C 16.550781 46.765625 18.203125 47.15625 19.867188 47.566406 C 21.972656 48.082031 24.089844 48.554688 26.207031 49.019531 L 26.832031 49.15625 C 27.203125 49.238281 27.578125 49.316406 27.949219 49.394531 C 28.769531 49.570312 29.503906 49.78125 30.28125 50.101562 C 30.761719 50.226562 31.242188 50.347656 31.726562 50.460938 C 33.722656 50.945312 35.683594 51.542969 37.644531 52.148438 L 38.140625 52.300781 C 41.589844 53.359375 44.988281 54.546875 48.351562 55.847656 C 49.480469 56.277344 50.617188 56.691406 51.761719 57.082031 C 53.019531 57.515625 54.210938 58.023438 55.410156 58.597656 C 56.492188 59.09375 57.605469 59.507812 58.71875 59.917969 L 58.71875 60.328125 L 59.332031 60.492188 C 60.167969 60.730469 60.972656 61.035156 61.785156 61.351562 L 61.785156 61.757812 C 61.902344 61.796875 62.019531 61.832031 62.140625 61.871094 C 63.136719 62.195312 64.101562 62.558594 65.058594 62.984375 L 65.058594 63.394531 L 65.441406 63.523438 L 67.515625 64.210938 L 67.515625 64.621094 L 69.355469 65.234375 L 69.355469 65.644531 L 69.867188 65.796875 C 70.691406 66.089844 71.445312 66.46875 72.21875 66.871094 L 72.21875 67.28125 L 72.667969 67.34375 C 73.300781 67.5 73.738281 67.722656 74.265625 68.097656 L 74.265625 68.507812 L 74.828125 68.6875 C 75.355469 68.867188 75.824219 69.0625 76.3125 69.324219 L 76.3125 69.734375 L 76.632812 69.785156 C 77.34375 70.003906 77.921875 70.375 78.5625 70.757812 L 78.5625 71.164062 L 79 71.324219 C 79.636719 71.59375 80.191406 71.921875 80.773438 72.289062 L 81.378906 72.667969 L 81.835938 73.007812 L 81.835938 73.414062 L 82.449219 73.414062 L 82.449219 73.824219 L 82.9375 74.015625 C 83.472656 74.234375 83.472656 74.234375 83.882812 74.4375 L 83.882812 74.847656 L 84.304688 74.988281 C 85.046875 75.320312 85.730469 75.730469 86.335938 76.277344 L 86.335938 76.6875 L 87.359375 77.097656 L 87.359375 77.503906 L 88.179688 77.710938 L 88.179688 78.117188 L 89.199219 78.527344 L 89.199219 78.9375 L 89.585938 79.128906 L 90.429688 79.550781 L 90.429688 79.957031 L 90.785156 80.125 C 91.257812 80.375 91.660156 80.632812 92.066406 80.980469 L 92.066406 81.390625 L 92.410156 81.539062 C 92.984375 81.855469 93.414062 82.246094 93.894531 82.695312 C 94.417969 83.179688 94.9375 83.644531 95.503906 84.082031 C 95.652344 84.207031 95.800781 84.328125 95.953125 84.457031 L 95.953125 84.867188 L 96.566406 85.070312 L 96.566406 85.480469 L 96.976562 85.480469 L 96.976562 85.890625 L 97.371094 86.054688 L 97.792969 86.296875 L 97.996094 86.910156 L 98.40625 86.910156 L 98.40625 87.320312 L 99.019531 87.523438 L 99.019531 87.933594 L 99.429688 87.933594 L 99.429688 88.34375 L 99.839844 88.34375 C 100.121094 88.621094 100.121094 88.621094 100.453125 89.019531 C 101.246094 89.957031 102.082031 90.855469 102.921875 91.753906 L 103.316406 92.226562 L 103.316406 92.636719 L 103.726562 92.636719 C 104.160156 93.121094 104.160156 93.121094 104.542969 93.660156 L 104.542969 94.070312 L 104.953125 94.070312 C 105.21875 94.355469 105.21875 94.355469 105.519531 94.757812 L 105.851562 95.199219 L 106.207031 95.679688 C 106.449219 96 106.691406 96.320312 106.933594 96.644531 L 107.289062 97.117188 C 107.683594 97.636719 108.09375 98.148438 108.507812 98.65625 C 110.632812 101.296875 112.46875 104.21875 114.269531 107.085938 C 114.46875 107.40625 114.675781 107.726562 114.882812 108.042969 L 115.171875 108.484375 L 115.417969 108.863281 C 115.59375 109.203125 115.59375 109.203125 115.59375 109.816406 L 116 109.816406 L 116.234375 110.292969 C 116.777344 111.398438 117.328125 112.46875 118 113.496094 C 118.238281 113.882812 118.445312 114.269531 118.644531 114.675781 L 118.855469 115.109375 L 119.070312 115.539062 C 119.195312 115.792969 119.324219 116.042969 119.449219 116.292969 C 120.1875 117.757812 120.917969 119.226562 121.628906 120.703125 C 121.699219 120.851562 121.769531 120.996094 121.84375 121.148438 C 122.1875 121.863281 122.34375 122.296875 122.34375 123.105469 L 122.753906 123.105469 C 122.855469 123.363281 122.957031 123.617188 123.058594 123.875 L 123.230469 124.304688 C 123.367188 124.742188 123.367188 124.742188 123.367188 125.5625 L 123.777344 125.5625 L 124.015625 126.25 C 124.691406 128.199219 124.691406 128.199219 125.4375 130.125 C 126.640625 133.066406 126.640625 133.066406 126.640625 134.355469 C 125.234375 134.683594 123.90625 134.824219 122.460938 134.824219 L 121.859375 134.828125 C 121.21875 134.832031 120.578125 134.828125 119.941406 134.828125 L 119.273438 134.824219 C 115.089844 134.8125 111.03125 134.492188 106.890625 133.902344 L 105.492188 133.703125 C 105.175781 133.660156 104.863281 133.617188 104.546875 133.570312 C 101.8125 133.1875 99.078125 132.941406 96.324219 132.757812 L 95.75 132.71875 C 93.011719 132.53125 90.367188 132.472656 87.628906 132.703125 L 86.953125 132.757812 C 77.445312 133.539062 67.957031 136.859375 59.976562 142.066406 L 59.535156 142.328125 L 59.128906 142.328125 L 59.128906 142.738281 C 58.785156 143 58.785156 143 58.335938 143.273438 L 57.886719 143.550781 C 57.492188 143.761719 57.492188 143.761719 57.082031 143.761719 L 57.082031 144.167969 C 56.800781 144.363281 56.519531 144.554688 56.230469 144.738281 C 55.511719 145.214844 54.859375 145.773438 54.191406 146.316406 L 53.757812 146.667969 C 53.175781 147.140625 52.621094 147.605469 52.097656 148.136719 L 51.761719 148.464844 L 51.351562 148.464844 L 51.351562 148.871094 L 50.945312 148.871094 L 50.738281 149.484375 L 50.332031 149.484375 L 50.332031 149.894531 L 49.921875 149.894531 L 49.714844 150.507812 L 49.308594 150.507812 L 49.308594 150.917969 L 48.898438 150.917969 L 48.898438 151.328125 L 48.488281 151.328125 L 48.285156 151.941406 L 47.875 151.941406 L 47.710938 152.296875 C 47.460938 152.769531 47.199219 153.171875 46.851562 153.574219 L 46.441406 153.574219 L 46.300781 153.894531 C 45.933594 154.578125 45.523438 155.242188 45.011719 155.824219 L 44.601562 155.824219 L 44.433594 156.179688 C 44.191406 156.648438 43.917969 157.078125 43.621094 157.515625 L 43.292969 158.003906 L 42.953125 158.507812 L 42.28125 159.507812 L 41.980469 159.953125 C 41.730469 160.320312 41.730469 160.320312 41.53125 160.734375 L 41.125 160.734375 L 41.046875 161.097656 C 40.839844 161.835938 40.398438 162.449219 40 163.097656 C 38.867188 164.976562 37.933594 166.917969 37.03125 168.914062 L 36.828125 169.355469 C 35.324219 172.671875 34.269531 176.03125 33.351562 179.546875 C 33.289062 179.777344 33.226562 180.007812 33.164062 180.242188 C 32.839844 181.5 32.5625 182.765625 32.289062 184.03125 L 32.175781 184.539062 C 32.007812 185.347656 31.898438 186.078125 31.917969 186.910156 L 31.714844 187.113281 C 31.671875 187.394531 31.636719 187.679688 31.609375 187.964844 L 31.558594 188.511719 L 31.507812 189.105469 L 31.453125 189.71875 C 31.335938 191.09375 31.246094 192.46875 31.175781 193.847656 L 31.152344 194.335938 C 31.027344 197.097656 31.109375 199.847656 31.265625 202.601562 L 31.292969 203.09375 C 31.421875 205.332031 31.585938 207.535156 32.027344 209.738281 C 32.136719 210.296875 32.238281 210.855469 32.339844 211.414062 C 33.433594 217.328125 35.203125 223.253906 37.945312 228.625 C 38.261719 229.242188 38.566406 229.867188 38.875 230.492188 C 39.359375 231.46875 39.898438 232.394531 40.488281 233.316406 C 40.714844 233.738281 40.714844 233.738281 40.714844 234.351562 L 41.125 234.351562 L 41.125 234.964844 L 41.53125 234.964844 C 41.765625 235.257812 41.765625 235.257812 42.019531 235.664062 C 42.113281 235.8125 42.203125 235.957031 42.296875 236.105469 L 42.582031 236.574219 L 42.871094 237.039062 C 43.390625 237.878906 43.390625 237.878906 43.578125 238.234375 L 43.578125 238.644531 L 43.988281 238.644531 C 44.320312 239.078125 44.640625 239.523438 44.945312 239.972656 C 45.652344 240.992188 46.375 241.945312 47.222656 242.847656 L 47.464844 243.144531 L 47.464844 243.554688 L 47.875 243.554688 C 48.222656 243.890625 48.222656 243.890625 48.605469 244.332031 L 48.988281 244.769531 C 49.308594 245.1875 49.308594 245.1875 49.511719 245.800781 L 49.921875 245.800781 L 49.921875 246.210938 L 50.332031 246.210938 L 50.332031 246.621094 L 50.945312 246.824219 L 50.945312 247.234375 L 51.351562 247.234375 L 51.351562 247.644531 L 51.964844 247.847656 L 51.964844 248.257812 L 52.375 248.257812 L 52.375 248.664062 L 52.785156 248.664062 L 52.785156 249.074219 L 53.128906 249.226562 C 53.691406 249.53125 54.152344 249.878906 54.625 250.300781 L 54.625 250.710938 L 55.238281 250.914062 L 55.238281 251.324219 L 55.855469 251.324219 L 55.855469 251.734375 L 56.171875 251.875 C 56.855469 252.238281 57.519531 252.652344 58.105469 253.164062 L 58.105469 253.574219 L 58.71875 253.574219 L 58.71875 253.980469 L 59.066406 254.144531 C 59.578125 254.414062 60.027344 254.726562 60.496094 255.070312 C 61.4375 255.734375 62.402344 256.308594 63.421875 256.84375 L 63.421875 257.253906 L 64.039062 257.253906 L 64.039062 257.664062 L 64.542969 257.804688 C 65.585938 258.191406 66.480469 258.773438 67.421875 259.355469 C 68.382812 259.9375 69.316406 260.367188 70.378906 260.730469 L 70.378906 261.140625 L 72.425781 261.753906 L 72.425781 262.160156 L 73.242188 262.160156 L 73.242188 262.570312 L 74.675781 262.773438 L 74.675781 263.183594 L 75.699219 263.183594 L 75.699219 263.59375 L 76.492188 263.746094 C 77.402344 263.945312 78.226562 264.265625 79.085938 264.625 C 79.785156 264.898438 80.488281 265.066406 81.222656 265.230469 L 81.222656 265.636719 L 82.449219 265.636719 L 82.449219 266.046875 L 83.039062 266.125 C 84.007812 266.261719 84.96875 266.460938 85.925781 266.660156 L 85.925781 267.070312 L 87.5625 267.070312 L 87.5625 267.480469 L 87.917969 267.507812 C 89.375 267.644531 90.832031 267.816406 92.269531 268.09375 L 92.472656 268.296875 C 92.925781 268.371094 93.382812 268.429688 93.839844 268.488281 L 94.253906 268.539062 C 94.699219 268.597656 95.140625 268.652344 95.582031 268.707031 C 96.019531 268.761719 96.457031 268.816406 96.898438 268.871094 C 97.296875 268.921875 97.699219 268.96875 98.097656 269.019531 C 98.554688 269.078125 99.011719 269.148438 99.464844 269.226562 C 106.320312 270.34375 114.085938 269.625 120.910156 268.707031 L 121.351562 268.648438 C 122.789062 268.453125 124.1875 268.171875 125.597656 267.832031 C 126.363281 267.652344 127.128906 267.503906 127.902344 267.363281 L 128.277344 267.273438 L 128.480469 267.070312 L 129.09375 266.992188 C 129.703125 266.914062 130.242188 266.765625 130.820312 266.558594 C 131.683594 266.253906 132.484375 266.128906 133.390625 266.046875 L 133.390625 265.636719 L 133.886719 265.507812 C 136.726562 264.742188 139.441406 263.671875 142.085938 262.378906 C 142.597656 262.160156 142.597656 262.160156 143.210938 262.160156 L 143.210938 261.753906 C 143.535156 261.621094 143.859375 261.488281 144.183594 261.355469 L 144.730469 261.132812 C 145.167969 260.964844 145.617188 260.832031 146.074219 260.730469 L 146.074219 260.320312 L 147.917969 259.707031 L 147.917969 259.300781 C 148.25 259.128906 148.582031 258.957031 148.914062 258.789062 L 149.476562 258.5 C 149.960938 258.277344 149.960938 258.277344 150.371094 258.277344 L 150.371094 257.867188 L 151.394531 257.664062 L 151.394531 257.253906 L 152.109375 256.894531 C 154.230469 255.722656 156.144531 254.09375 158.023438 252.574219 L 158.351562 252.347656 L 158.757812 252.347656 L 158.757812 251.9375 C 159.246094 251.503906 159.246094 251.503906 159.78125 251.121094 L 160.191406 251.121094 C 160.53125 251.875 160.679688 252.546875 160.765625 253.371094 C 160.792969 253.605469 160.820312 253.839844 160.84375 254.085938 L 160.921875 254.824219 L 160.996094 255.550781 C 161.136719 256.851562 161.261719 258.152344 161.375 259.453125 C 161.453125 260.257812 161.570312 261.054688 161.714844 261.851562 C 161.992188 263.433594 162.171875 265.011719 162.328125 266.609375 C 162.59375 269.292969 162.914062 271.964844 163.261719 274.636719 L 163.429688 275.941406 L 163.59375 277.21875 L 163.667969 277.808594 C 163.933594 279.832031 164.308594 281.832031 164.691406 283.839844 L 164.808594 284.441406 C 165.257812 286.78125 165.71875 289.105469 166.363281 291.398438 C 166.507812 291.933594 166.640625 292.472656 166.75 293.015625 C 166.882812 293.640625 167.0625 294.226562 167.273438 294.828125 C 167.503906 295.484375 167.625 296.019531 167.554688 296.722656 L 167.964844 296.722656 L 168.0625 297.082031 C 169.480469 302.058594 172.136719 306.710938 175.738281 310.421875 L 176.148438 310.625 L 176.148438 311.035156 L 176.480469 311.191406 C 177.078125 311.5 177.628906 311.863281 178.195312 312.222656 C 180.113281 313.425781 182.257812 314.472656 184.558594 314.570312 C 184.855469 314.578125 185.152344 314.578125 185.449219 314.582031 L 185.933594 314.585938 C 186.269531 314.585938 186.605469 314.585938 186.941406 314.585938 C 187.449219 314.589844 187.953125 314.597656 188.460938 314.605469 C 190.183594 314.617188 191.640625 314.535156 193.261719 313.871094 C 193.742188 313.695312 193.742188 313.695312 194.5625 313.695312 L 194.5625 313.285156 L 194.878906 313.171875 C 196.949219 312.34375 198.839844 310.886719 200.289062 309.195312 L 200.496094 308.785156 L 200.902344 308.785156 L 200.902344 308.378906 L 201.3125 308.378906 L 201.453125 308.058594 C 201.761719 307.488281 202.128906 306.988281 202.515625 306.472656 C 202.78125 306.101562 202.78125 306.101562 202.949219 305.515625 L 203.359375 305.515625 L 203.414062 305.191406 C 203.617188 304.511719 203.960938 303.921875 204.304688 303.304688 C 205.640625 300.835938 206.734375 298.394531 207.582031 295.71875 C 207.746094 295.199219 207.941406 294.691406 208.164062 294.199219 C 208.570312 293.214844 208.816406 292.214844 209.074219 291.1875 C 209.234375 290.558594 209.394531 289.933594 209.554688 289.304688 C 209.738281 288.605469 209.941406 287.917969 210.148438 287.226562 C 210.550781 285.84375 210.808594 284.445312 211.058594 283.03125 C 211.1875 282.316406 211.324219 281.609375 211.464844 280.898438 L 211.613281 280.140625 C 211.746094 279.542969 211.746094 279.542969 211.949219 279.132812 C 211.988281 278.863281 212.015625 278.589844 212.039062 278.316406 C 212.105469 277.667969 212.199219 277.039062 212.335938 276.398438 C 212.542969 275.398438 212.703125 274.394531 212.859375 273.382812 C 213.050781 272.144531 213.257812 270.910156 213.5 269.675781 C 213.757812 268.335938 213.949219 266.996094 214.113281 265.640625 C 214.203125 265.023438 214.203125 265.023438 214.40625 264.410156 C 214.4375 264.09375 214.460938 263.773438 214.484375 263.453125 C 214.574219 262.339844 214.769531 261.257812 214.988281 260.160156 C 215.226562 258.917969 215.394531 257.675781 215.546875 256.417969 C 215.632812 255.824219 215.632812 255.824219 215.839844 255.414062 C 215.875 255.125 215.902344 254.835938 215.925781 254.542969 C 216.003906 253.765625 216.167969 253.082031 216.453125 252.347656 C 216.804688 252.339844 217.160156 252.335938 217.511719 252.332031 L 218.109375 252.324219 C 218.671875 252.34375 219.179688 252.421875 219.726562 252.550781 L 219.726562 252.960938 L 220.222656 253.011719 C 221.148438 253.207031 221.945312 253.578125 222.792969 253.980469 L 222.792969 254.390625 L 223.40625 254.390625 L 223.40625 254.800781 L 224.429688 255.003906 L 224.429688 255.414062 L 224.769531 255.570312 C 225.339844 255.871094 225.832031 256.230469 226.347656 256.613281 C 226.972656 257.078125 227.597656 257.53125 228.253906 257.945312 L 228.726562 258.277344 L 228.726562 258.683594 L 229.125 258.75 L 229.546875 258.890625 L 229.75 259.503906 C 230.117188 259.722656 230.117188 259.722656 230.566406 259.914062 C 231.128906 260.21875 231.128906 260.21875 231.589844 260.527344 L 231.589844 260.933594 L 232 261.0625 C 232.699219 261.382812 233.234375 261.800781 233.839844 262.269531 C 234.355469 262.648438 234.898438 262.921875 235.476562 263.183594 L 235.476562 263.59375 L 235.886719 263.753906 C 236.355469 263.941406 236.820312 264.140625 237.28125 264.347656 L 237.703125 264.535156 C 237.992188 264.667969 238.28125 264.796875 238.570312 264.925781 C 239.308594 265.253906 239.988281 265.523438 240.796875 265.636719 L 240.796875 266.046875 L 242.023438 266.046875 L 242.023438 266.457031 L 242.535156 266.53125 C 243.332031 266.675781 244.105469 266.867188 244.890625 267.070312 L 244.890625 267.480469 L 245.488281 267.554688 C 246.390625 267.683594 247.273438 267.886719 248.164062 268.09375 L 248.164062 268.5 L 248.867188 268.488281 L 249.59375 268.5 L 249.800781 268.707031 C 251.007812 268.996094 252.21875 269.222656 253.441406 269.429688 L 253.890625 269.523438 L 254.09375 269.726562 C 254.402344 269.765625 254.707031 269.792969 255.015625 269.816406 C 255.695312 269.878906 256.34375 269.964844 257.011719 270.125 C 259.117188 270.617188 261.25 270.800781 263.40625 270.90625 C 264.121094 270.953125 264.121094 270.953125 264.558594 271.058594 C 265.371094 271.199219 266.167969 271.1875 266.988281 271.1875 L 267.527344 271.1875 C 267.902344 271.1875 268.273438 271.1875 268.648438 271.1875 C 269.21875 271.183594 269.789062 271.1875 270.359375 271.1875 C 270.722656 271.1875 271.085938 271.1875 271.453125 271.1875 L 271.964844 271.1875 C 272.851562 271.183594 273.679688 271.121094 274.554688 270.953125 C 275.109375 270.917969 275.660156 270.890625 276.214844 270.867188 C 277.429688 270.800781 278.605469 270.6875 279.804688 270.464844 C 280.367188 270.363281 280.929688 270.273438 281.496094 270.1875 L 282.03125 270.105469 C 282.386719 270.050781 282.742188 269.996094 283.097656 269.941406 C 283.523438 269.878906 283.949219 269.804688 284.375 269.726562 L 284.578125 269.523438 C 285.003906 269.421875 285.429688 269.328125 285.855469 269.242188 C 289.324219 268.535156 289.324219 268.535156 292.660156 267.375 C 293.363281 267.074219 294.066406 266.832031 294.792969 266.597656 C 295.128906 266.484375 295.460938 266.351562 295.792969 266.214844 C 296.238281 266.046875 296.238281 266.046875 297.058594 266.046875 L 297.058594 265.636719 L 297.433594 265.515625 C 298.820312 265.042969 300.09375 264.4375 301.394531 263.769531 C 302.382812 263.269531 303.355469 262.875 304.421875 262.570312 L 304.421875 262.160156 L 304.878906 261.945312 C 306.367188 261.21875 307.75 260.417969 309.128906 259.503906 L 310.050781 258.894531 C 310.382812 258.675781 310.714844 258.457031 311.046875 258.238281 C 311.203125 258.132812 311.363281 258.027344 311.527344 257.921875 C 312.175781 257.488281 312.800781 257.058594 313.40625 256.566406 L 313.832031 256.230469 L 314.242188 256.230469 L 314.242188 255.824219 C 314.847656 255.378906 315.371094 255.039062 316.082031 254.800781 L 316.082031 254.390625 L 317.105469 253.980469 L 317.105469 253.574219 C 317.59375 253.136719 317.59375 253.136719 318.128906 252.753906 L 318.539062 252.753906 L 318.539062 252.347656 C 318.839844 252.042969 318.839844 252.042969 319.253906 251.695312 C 319.402344 251.566406 319.550781 251.441406 319.703125 251.3125 L 320.175781 250.914062 C 320.46875 250.664062 320.765625 250.414062 321.058594 250.160156 L 321.453125 249.824219 C 321.832031 249.484375 321.832031 249.484375 322.140625 249.03125 L 322.425781 248.664062 L 322.835938 248.664062 L 322.992188 248.300781 C 323.265625 247.808594 323.5625 247.492188 323.972656 247.105469 C 324.5 246.609375 324.5 246.609375 324.882812 246.007812 L 325.289062 246.007812 L 325.902344 244.78125 L 326.3125 244.78125 L 326.3125 244.371094 L 326.722656 244.371094 L 326.863281 244.042969 C 327.222656 243.386719 327.679688 242.820312 328.140625 242.238281 C 328.636719 241.609375 329.121094 240.992188 329.523438 240.300781 L 329.789062 239.871094 L 330.199219 239.871094 L 330.367188 239.425781 C 330.609375 238.851562 330.871094 238.339844 331.222656 237.828125 L 331.632812 237.828125 L 331.804688 237.375 C 332.027344 236.839844 332.277344 236.375 332.578125 235.882812 L 332.90625 235.34375 C 333.152344 234.945312 333.402344 234.550781 333.65625 234.15625 C 334.707031 232.507812 335.539062 230.8125 336.351562 229.035156 C 336.726562 228.230469 337.132812 227.4375 337.539062 226.644531 C 337.789062 226.15625 337.789062 226.15625 337.972656 225.558594 L 338.382812 225.558594 L 338.453125 225.027344 C 338.597656 224.289062 338.832031 223.679688 339.125 222.988281 C 340.207031 220.367188 341.167969 217.664062 341.738281 214.878906 C 341.863281 214.308594 341.863281 214.308594 342.050781 213.679688 C 342.363281 212.601562 342.566406 211.5 342.78125 210.398438 L 342.917969 209.707031 C 343.355469 207.476562 343.71875 205.289062 343.855469 203.019531 C 343.90625 202.449219 343.90625 202.449219 344.011719 202.082031 C 344.136719 201.519531 344.136719 201 344.136719 200.421875 L 344.140625 199.683594 L 344.140625 198.074219 C 344.140625 197.503906 344.140625 196.933594 344.136719 196.363281 C 344.136719 195.632812 344.136719 194.898438 344.140625 194.167969 C 344.140625 193.472656 344.140625 192.773438 344.140625 192.078125 L 344.140625 191.28125 L 344.136719 190.546875 L 344.136719 189.898438 C 344.132812 189.339844 344.132812 189.339844 343.90625 188.75 C 343.867188 188.460938 343.835938 188.171875 343.8125 187.878906 L 343.765625 187.367188 L 343.714844 186.820312 C 343.457031 184.121094 342.972656 181.546875 342.269531 178.933594 L 342.164062 178.527344 C 341.648438 176.609375 341.007812 174.746094 340.3125 172.886719 C 340.238281 172.679688 340.160156 172.472656 340.082031 172.261719 C 339.695312 171.246094 339.289062 170.265625 338.789062 169.304688 C 338.578125 168.890625 338.378906 168.472656 338.1875 168.050781 L 337.984375 167.613281 C 337.851562 167.320312 337.714844 167.027344 337.582031 166.734375 C 337.105469 165.703125 336.542969 164.757812 335.929688 163.800781 C 335.769531 163.542969 335.609375 163.285156 335.453125 163.027344 C 334.195312 160.980469 332.898438 158.953125 331.367188 157.097656 L 331.019531 156.644531 L 331.019531 156.234375 L 330.609375 156.234375 L 330.609375 155.824219 L 330.199219 155.824219 C 329.921875 155.496094 329.921875 155.496094 329.613281 155.058594 C 329.253906 154.5625 328.921875 154.136719 328.488281 153.703125 L 328.152344 153.371094 L 328.152344 152.960938 L 327.746094 152.960938 C 327.40625 152.632812 327.40625 152.632812 327.027344 152.195312 L 326.652344 151.765625 C 326.335938 151.359375 326.113281 150.976562 325.902344 150.507812 L 325.289062 150.507812 L 325.289062 150.101562 L 324.882812 150.101562 C 324.546875 149.820312 324.546875 149.820312 324.265625 149.484375 L 324.265625 149.078125 L 323.859375 149.078125 L 323.859375 148.667969 L 323.449219 148.667969 L 323.449219 148.257812 L 323.078125 148.082031 C 322.628906 147.851562 322.628906 147.851562 322.015625 147.441406 L 322.015625 147.03125 L 321.402344 147.03125 L 321.402344 146.625 L 320.992188 146.625 L 320.992188 146.214844 L 320.507812 146.023438 C 319.972656 145.804688 319.972656 145.804688 319.5625 145.601562 L 319.5625 145.191406 L 319.152344 145.191406 L 319.152344 144.78125 L 318.539062 144.78125 L 318.335938 144.375 L 317.71875 144.167969 L 317.71875 143.761719 L 317.105469 143.761719 L 316.902344 143.351562 L 316.289062 143.148438 L 316.289062 142.738281 L 315.929688 142.660156 C 315.464844 142.53125 315.078125 142.351562 314.652344 142.125 L 314.652344 141.714844 L 314.320312 141.652344 C 313.707031 141.472656 313.171875 141.191406 312.605469 140.898438 L 312.605469 140.488281 L 310.765625 139.875 L 310.765625 139.464844 L 309.996094 139.234375 C 309 138.90625 308.09375 138.449219 307.160156 137.96875 C 304.964844 136.878906 302.691406 136.042969 300.371094 135.273438 L 299.925781 135.128906 C 294.28125 133.261719 288.542969 132.160156 282.609375 131.730469 C 282.207031 131.703125 281.804688 131.664062 281.402344 131.625 C 274.539062 130.96875 267.378906 131.816406 260.640625 133.125 L 260.050781 133.238281 C 258.191406 133.597656 256.367188 134.027344 254.550781 134.570312 C 253.691406 134.820312 252.824219 135.027344 251.953125 135.230469 C 251.4375 135.355469 251.4375 135.355469 251.007812 135.609375 L 250.617188 135.785156 C 250.183594 135.695312 250.183594 135.695312 249.800781 135.582031 C 249.988281 134.832031 250.179688 134.082031 250.375 133.332031 L 250.535156 132.691406 C 250.804688 131.652344 251.089844 130.644531 251.484375 129.648438 C 251.796875 128.835938 252.050781 128.007812 252.316406 127.183594 C 252.832031 125.625 253.390625 124.097656 254.015625 122.578125 C 254.289062 121.902344 254.554688 121.222656 254.8125 120.539062 C 255.746094 118.109375 256.816406 115.777344 257.996094 113.464844 C 258.265625 112.929688 258.527344 112.394531 258.789062 111.859375 C 261.105469 107.230469 263.871094 102.703125 266.984375 98.566406 L 267.59375 97.753906 C 267.914062 97.324219 268.238281 96.898438 268.558594 96.46875 L 268.859375 96.070312 L 269.152344 95.683594 C 269.445312 95.289062 269.722656 94.886719 270 94.480469 L 270.460938 93.863281 L 270.871094 93.863281 L 271.039062 93.507812 C 271.289062 93.03125 271.570312 92.613281 271.894531 92.175781 L 272.214844 91.738281 L 272.507812 91.410156 L 272.917969 91.410156 L 273.078125 91.050781 C 273.347656 90.550781 273.652344 90.199219 274.046875 89.789062 C 274.1875 89.636719 274.328125 89.488281 274.476562 89.335938 L 274.925781 88.867188 L 275.367188 88.402344 C 276.105469 87.621094 276.859375 86.851562 277.621094 86.09375 L 279.667969 84.046875 L 280.035156 83.664062 L 280.421875 83.269531 L 280.78125 82.894531 L 281.101562 82.617188 L 281.507812 82.617188 L 281.507812 82.207031 C 281.851562 81.855469 281.851562 81.855469 282.300781 81.46875 L 282.746094 81.074219 L 283.144531 80.777344 L 283.554688 80.777344 L 283.554688 80.367188 C 283.871094 80.085938 283.871094 80.085938 284.324219 79.753906 C 285.078125 79.183594 285.8125 78.589844 286.535156 77.976562 C 288.984375 75.917969 291.609375 74.074219 294.230469 72.242188 C 294.542969 72.023438 294.851562 71.804688 295.160156 71.582031 C 297.945312 69.59375 300.933594 67.894531 303.882812 66.167969 C 304.378906 65.875 304.875 65.578125 305.367188 65.28125 C 307.105469 64.242188 308.863281 63.28125 310.691406 62.402344 C 311.234375 62.136719 311.777344 61.871094 312.320312 61.605469 C 316.519531 59.566406 320.757812 57.621094 325.125 55.96875 C 325.648438 55.769531 326.167969 55.550781 326.683594 55.328125 C 329.183594 54.277344 331.722656 53.269531 334.335938 52.535156 C 335.023438 52.3125 335.671875 52.023438 336.335938 51.738281 C 338.226562 51.066406 340.144531 50.476562 342.066406 49.898438 L 342.542969 49.753906 C 344.492188 49.164062 346.441406 48.582031 348.40625 48.058594 C 349.074219 47.871094 349.738281 47.679688 350.394531 47.472656 C 352.09375 46.929688 353.800781 46.511719 355.539062 46.113281 C 356.238281 45.949219 356.941406 45.78125 357.640625 45.605469 L 358.046875 45.503906 C 358.96875 45.269531 359.882812 45.023438 360.796875 44.773438 C 362.84375 44.222656 364.914062 43.773438 367.023438 43.558594 Z M 367.023438 43.148438 " fill-opacity="1" fill-rule="nonzero"/></g><path fill="#264663" d="M 205.242188 67.65625 C 205.832031 67.691406 206.421875 67.722656 207.015625 67.753906 C 212.832031 68.078125 218.632812 68.542969 224.429688 69.121094 L 224.910156 69.167969 C 234.21875 70.085938 243.777344 71.15625 252.867188 73.414062 C 252.742188 74.347656 252.363281 75.109375 251.933594 75.933594 L 251.484375 76.8125 L 251.253906 77.265625 C 250.902344 77.957031 250.554688 78.648438 250.207031 79.34375 L 249.796875 80.164062 C 249.527344 80.703125 249.261719 81.238281 248.996094 81.777344 C 248.164062 83.453125 247.308594 85.113281 246.421875 86.761719 C 245.941406 87.667969 245.503906 88.585938 245.09375 89.527344 C 244.753906 90.273438 244.359375 90.984375 243.96875 91.703125 C 243.472656 92.621094 242.992188 93.523438 242.625 94.503906 C 242.3125 95.339844 241.914062 96.113281 241.488281 96.894531 C 240.707031 98.324219 240 99.785156 239.304688 101.261719 C 238.804688 102.332031 238.285156 103.390625 237.753906 104.445312 C 236.617188 106.695312 235.542969 108.972656 234.457031 111.246094 C 232.019531 116.339844 232.019531 116.339844 230.976562 118.398438 C 230.386719 119.570312 229.828125 120.757812 229.265625 121.945312 C 228.496094 123.5625 227.6875 125.164062 226.839844 126.746094 C 226.058594 128.214844 225.34375 129.710938 224.628906 131.214844 C 223.898438 132.753906 223.144531 134.285156 222.375 135.808594 C 222.175781 136.207031 221.976562 136.601562 221.78125 137 C 221.089844 138.398438 220.371094 139.789062 219.636719 141.167969 C 218.980469 142.382812 218.375 143.617188 217.792969 144.871094 C 217.113281 146.335938 216.363281 147.746094 215.566406 149.148438 C 214.894531 150.335938 214.3125 151.550781 213.742188 152.792969 C 213.308594 153.734375 212.820312 154.613281 212.269531 155.492188 C 211.863281 156.179688 211.511719 156.886719 211.15625 157.601562 C 209.976562 159.996094 208.710938 162.347656 207.359375 164.652344 C 207.023438 165.222656 207.023438 165.222656 206.835938 165.84375 L 206.425781 165.84375 L 206.355469 166.300781 C 206.21875 166.886719 206.027344 167.265625 205.710938 167.777344 L 205.375 168.316406 C 204.886719 169.078125 204.398438 169.839844 203.90625 170.597656 C 203.132812 171.796875 202.386719 173.019531 201.644531 174.238281 L 201.371094 174.691406 L 201.128906 175.09375 C 200.921875 175.421875 200.710938 175.75 200.496094 176.070312 L 200.085938 176.070312 L 199.933594 176.507812 C 199.644531 177.167969 199.28125 177.699219 198.859375 178.28125 L 198.421875 178.886719 L 198.039062 179.34375 L 197.628906 179.34375 L 197.015625 180.570312 L 196.605469 180.570312 L 196.453125 180.921875 C 196.160156 181.457031 195.8125 181.828125 195.378906 182.257812 L 194.945312 182.695312 L 194.5625 183.023438 L 194.152344 183.023438 L 194.152344 183.433594 L 193.742188 183.433594 L 193.742188 183.839844 C 193.335938 184.128906 192.917969 184.402344 192.488281 184.660156 L 192.136719 184.878906 C 191.191406 185.453125 190.335938 185.839844 189.234375 185.949219 C 186.972656 185.957031 185.128906 185.4375 183.105469 184.453125 L 183.105469 184.046875 L 182.492188 184.046875 L 182.285156 183.636719 L 181.671875 183.433594 L 181.671875 183.023438 L 181.058594 183.023438 L 181.058594 182.613281 L 180.648438 182.613281 L 180.648438 182.207031 L 180.3125 182.070312 C 179.664062 181.699219 179.175781 181.199219 178.65625 180.671875 L 178.339844 180.363281 C 178.078125 180.097656 177.828125 179.824219 177.582031 179.546875 L 177.582031 179.136719 L 177.171875 179.136719 C 176.808594 178.714844 176.457031 178.28125 176.125 177.835938 L 175.832031 177.460938 C 175.589844 177.140625 175.355469 176.808594 175.125 176.480469 L 175.125 176.070312 L 174.714844 176.070312 C 174.394531 175.636719 174.085938 175.195312 173.796875 174.742188 L 173.523438 174.324219 C 172.777344 173.183594 172.054688 172.03125 171.335938 170.871094 C 170.890625 170.152344 170.4375 169.445312 169.960938 168.746094 C 169.289062 167.753906 168.726562 166.703125 168.171875 165.640625 L 167.910156 165.148438 C 167.351562 164.0625 167.351562 164.0625 167.351562 163.597656 L 166.941406 163.597656 L 166.640625 162.945312 C 165.910156 161.371094 165.15625 159.820312 164.328125 158.296875 C 163.375 156.535156 162.539062 154.71875 161.683594 152.90625 C 161.449219 152.414062 161.214844 151.917969 160.976562 151.425781 C 160.136719 149.671875 159.351562 147.902344 158.601562 146.109375 C 158.238281 145.242188 157.855469 144.398438 157.429688 143.5625 C 156.90625 142.527344 156.457031 141.46875 156.011719 140.398438 C 155.4375 139.042969 154.839844 137.738281 154.105469 136.460938 C 153.855469 136 153.671875 135.546875 153.492188 135.058594 C 153.035156 133.851562 152.390625 132.757812 151.757812 131.640625 C 151.277344 130.789062 150.8125 129.941406 150.382812 129.0625 C 149.84375 127.960938 149.253906 126.890625 148.65625 125.816406 C 147.898438 124.449219 147.171875 123.074219 146.480469 121.671875 C 145.804688 120.304688 145.089844 118.960938 144.378906 117.613281 C 143.777344 116.472656 143.179688 115.328125 142.585938 114.1875 C 141.4375 111.984375 140.285156 109.789062 139.109375 107.601562 C 138.34375 106.179688 137.601562 104.742188 136.882812 103.296875 C 136.308594 102.144531 135.707031 101.007812 135.101562 99.871094 C 134.566406 98.863281 134.050781 97.851562 133.542969 96.828125 C 133.0625 95.855469 132.566406 94.890625 132.027344 93.945312 C 131.035156 92.171875 130.09375 90.371094 129.199219 88.542969 C 128.859375 87.875 128.496094 87.222656 128.128906 86.570312 C 127.726562 85.839844 127.34375 85.105469 126.960938 84.367188 C 126.085938 82.707031 125.203125 81.046875 124.3125 79.394531 L 123.945312 78.710938 L 123.59375 78.058594 L 123.261719 77.441406 C 123 76.976562 122.730469 76.511719 122.449219 76.058594 L 122.140625 75.460938 L 122.34375 74.847656 C 122.933594 74.625 123.5 74.445312 124.109375 74.285156 L 124.6875 74.125 C 130.230469 72.636719 135.863281 71.617188 141.511719 70.632812 C 141.921875 70.5625 142.332031 70.488281 142.738281 70.417969 C 149.507812 69.207031 156.402344 68.621094 163.253906 68.128906 C 163.648438 68.101562 164.042969 68.070312 164.4375 68.039062 C 166.082031 67.917969 167.726562 67.808594 169.375 67.714844 C 169.824219 67.6875 170.273438 67.660156 170.722656 67.632812 C 182.171875 66.929688 193.789062 66.992188 205.242188 67.65625 M 281.304688 149.28125 L 281.304688 149.691406 L 281.789062 149.671875 C 283.492188 149.636719 285.03125 149.835938 286.6875 150.214844 L 287.433594 150.378906 C 293.5625 151.773438 299.253906 153.976562 304.628906 157.257812 L 305.277344 157.648438 C 306.46875 158.382812 306.46875 158.382812 306.878906 158.6875 L 306.878906 159.097656 L 307.695312 159.300781 L 307.695312 159.710938 L 308.195312 159.878906 L 308.71875 160.121094 L 308.921875 160.734375 L 309.332031 160.734375 L 309.332031 161.140625 L 309.945312 161.140625 L 309.945312 161.550781 L 310.355469 161.550781 L 310.355469 161.960938 L 310.765625 161.960938 L 310.765625 162.371094 L 311.097656 162.496094 C 311.769531 162.886719 312.316406 163.402344 312.808594 164.003906 L 312.808594 164.414062 L 313.21875 164.414062 C 313.757812 165.003906 313.757812 165.003906 314.242188 165.640625 L 314.242188 166.050781 L 314.652344 166.050781 C 315.015625 166.503906 315.367188 166.96875 315.699219 167.445312 L 315.992188 167.839844 C 316.238281 168.191406 316.46875 168.550781 316.699219 168.914062 L 316.699219 169.527344 L 317.105469 169.527344 C 317.402344 170.046875 317.695312 170.566406 317.988281 171.085938 L 318.238281 171.527344 C 319.5625 173.871094 319.5625 173.871094 319.5625 174.640625 L 319.972656 174.640625 L 320.21875 175.34375 L 320.546875 176.273438 L 320.707031 176.734375 C 320.96875 177.476562 321.234375 178.214844 321.519531 178.945312 C 321.820312 179.742188 322.035156 180.546875 322.234375 181.375 L 322.339844 181.808594 C 322.4375 182.214844 322.535156 182.617188 322.628906 183.023438 L 322.757812 183.542969 C 323.085938 184.921875 323.277344 186.320312 323.449219 187.726562 L 323.507812 188.199219 C 324.011719 192.5 323.980469 196.722656 323.449219 201.019531 L 323.378906 201.585938 C 323.148438 203.429688 322.917969 205.253906 322.371094 207.039062 C 322.195312 207.648438 322.074219 208.265625 321.953125 208.890625 C 321.699219 210.105469 321.367188 211.277344 320.992188 212.457031 C 320.941406 212.621094 320.890625 212.78125 320.839844 212.949219 C 320.53125 213.90625 320.164062 214.816406 319.765625 215.742188 C 319.667969 216.035156 319.566406 216.332031 319.472656 216.625 C 319.144531 217.636719 318.738281 218.609375 318.320312 219.589844 C 318.25 219.757812 318.179688 219.929688 318.105469 220.105469 C 317.789062 220.84375 317.472656 221.570312 317.105469 222.285156 L 316.699219 222.285156 L 316.640625 222.714844 C 316.460938 223.4375 316.152344 224 315.789062 224.648438 C 315.203125 225.707031 315.203125 225.707031 314.652344 226.785156 L 314.242188 226.785156 L 314.191406 227.21875 C 314 227.949219 313.675781 228.4375 313.21875 229.035156 L 312.808594 229.035156 L 312.765625 229.359375 C 312.535156 230.066406 312.109375 230.613281 311.671875 231.207031 L 311.394531 231.585938 C 310.703125 232.539062 309.976562 233.464844 309.230469 234.375 C 308.914062 234.746094 308.914062 234.746094 308.71875 235.167969 L 308.308594 235.167969 L 308.308594 235.578125 L 307.902344 235.578125 L 307.695312 236.394531 L 307.285156 236.394531 L 307.285156 236.804688 C 307.066406 237.042969 306.835938 237.273438 306.601562 237.5 C 306.199219 237.890625 305.808594 238.289062 305.417969 238.6875 L 304.488281 239.628906 L 304.007812 240.117188 L 303.550781 240.578125 L 303.136719 241 L 302.785156 241.304688 L 302.375 241.304688 L 302.375 241.710938 L 301.96875 241.710938 L 301.96875 242.121094 C 301.535156 242.519531 301.535156 242.519531 300.96875 242.964844 L 300.410156 243.414062 L 299.921875 243.757812 L 299.511719 243.757812 L 299.511719 244.167969 C 299.214844 244.429688 299.214844 244.429688 298.820312 244.703125 L 298.433594 244.980469 L 298.082031 245.1875 L 297.671875 245.1875 L 297.671875 245.597656 C 297.207031 245.945312 297.207031 245.945312 296.597656 246.328125 L 295.992188 246.710938 C 295.507812 246.980469 295.140625 247.140625 294.601562 247.234375 L 294.601562 247.644531 L 294.085938 247.917969 L 293.386719 248.292969 L 293.023438 248.492188 C 292.164062 248.953125 291.3125 249.429688 290.472656 249.921875 C 290.101562 250.097656 290.101562 250.097656 289.488281 250.097656 L 289.488281 250.503906 C 289.09375 250.675781 288.695312 250.847656 288.300781 251.015625 L 287.628906 251.304688 C 287.03125 251.527344 287.03125 251.527344 286.417969 251.527344 L 286.417969 251.9375 L 285.699219 252.175781 L 285.234375 252.332031 C 284.894531 252.445312 284.554688 252.558594 284.214844 252.671875 C 283.511719 252.902344 282.808594 253.136719 282.109375 253.390625 C 277.234375 255.152344 272.003906 255.660156 266.855469 255.644531 C 266.382812 255.644531 265.914062 255.644531 265.445312 255.644531 C 262.886719 255.648438 260.300781 255.640625 257.789062 255.125 C 257.285156 255.027344 256.777344 254.941406 256.273438 254.863281 C 253.382812 254.414062 253.382812 254.414062 252.152344 253.945312 C 250.855469 253.515625 249.496094 253.261719 248.164062 252.960938 L 248.164062 252.550781 L 247.785156 252.488281 C 246.667969 252.289062 245.667969 251.996094 244.621094 251.554688 C 244.007812 251.296875 243.386719 251.0625 242.765625 250.824219 C 241.484375 250.335938 240.21875 249.8125 238.957031 249.277344 L 238.957031 248.871094 L 238.523438 248.742188 L 237.957031 248.574219 L 237.398438 248.410156 C 236.910156 248.257812 236.910156 248.257812 236.5 248.050781 L 236.5 247.644531 L 236.15625 247.566406 C 235.636719 247.425781 235.15625 247.234375 234.660156 247.03125 L 234.660156 246.621094 L 234.324219 246.558594 C 233.71875 246.378906 233.214844 246.097656 232.664062 245.789062 L 232.054688 245.449219 L 231.589844 245.1875 L 231.589844 244.78125 L 230.773438 244.574219 L 230.773438 244.167969 L 229.953125 243.960938 L 229.953125 243.554688 L 229.515625 243.398438 C 228.863281 243.113281 228.351562 242.761719 227.78125 242.339844 L 227.195312 241.910156 C 226.785156 241.589844 226.433594 241.265625 226.066406 240.894531 L 225.65625 240.691406 L 225.65625 240.28125 L 225.25 240.28125 C 225.007812 240.046875 224.769531 239.808594 224.535156 239.566406 C 224.078125 239.109375 223.574219 238.710938 223.070312 238.304688 L 222.792969 238.03125 L 222.792969 237.621094 L 222.382812 237.621094 L 222.382812 237.214844 L 221.976562 237.214844 C 221.628906 236.878906 221.628906 236.878906 221.246094 236.433594 L 220.863281 235.996094 C 220.542969 235.578125 220.542969 235.578125 220.339844 234.964844 L 219.929688 234.964844 C 219.394531 234.375 219.394531 234.375 218.90625 233.738281 L 218.90625 233.328125 L 218.496094 233.328125 C 218.269531 233.039062 218.269531 233.039062 218 232.613281 C 217.503906 231.847656 216.996094 231.089844 216.472656 230.34375 C 213.039062 225.421875 210.457031 220.042969 208.675781 214.308594 L 208.453125 213.597656 C 207.964844 211.960938 207.601562 210.324219 207.324219 208.636719 C 207.265625 208.304688 207.203125 207.96875 207.140625 207.636719 C 206.785156 205.675781 206.765625 203.738281 206.773438 201.75 C 206.773438 201.175781 206.769531 200.601562 206.761719 200.027344 C 206.753906 197.691406 206.957031 195.527344 207.449219 193.246094 L 207.636719 192.355469 C 208.597656 187.808594 210.5 183.820312 212.792969 179.816406 C 213.074219 179.324219 213.339844 178.832031 213.585938 178.320312 L 213.996094 178.320312 L 214.144531 177.886719 C 214.683594 176.671875 215.625 175.667969 216.453125 174.640625 L 216.957031 174.003906 C 218.121094 172.585938 219.367188 171.273438 220.660156 169.972656 L 221.152344 169.472656 L 221.617188 169.011719 C 221.757812 168.875 221.894531 168.738281 222.035156 168.59375 L 222.382812 168.300781 L 222.792969 168.300781 L 222.792969 167.890625 C 223.28125 167.457031 223.28125 167.457031 223.816406 167.074219 L 224.226562 167.074219 L 224.226562 166.664062 L 225.25 166.253906 L 225.25 165.84375 C 225.648438 165.511719 225.648438 165.511719 226.207031 165.117188 L 226.824219 164.683594 L 227.152344 164.449219 C 227.511719 164.199219 227.871094 163.945312 228.226562 163.691406 C 228.464844 163.523438 228.703125 163.355469 228.945312 163.1875 L 229.292969 162.941406 C 229.574219 162.742188 229.867188 162.554688 230.160156 162.371094 L 230.566406 162.371094 L 230.566406 161.960938 C 232.117188 161.058594 233.671875 160.160156 235.230469 159.269531 C 235.609375 159.050781 235.992188 158.832031 236.371094 158.613281 C 244.105469 154.171875 253.136719 151.433594 261.871094 149.894531 L 262.339844 149.808594 C 268.652344 148.675781 274.945312 148.75 281.304688 149.28125 M 239.453125 171.496094 C 236.320312 173.527344 236.320312 173.527344 233.433594 175.867188 L 233.433594 176.273438 L 233.0625 176.453125 C 232.574219 176.695312 232.574219 176.695312 232 177.09375 L 232 177.5 L 231.589844 177.5 L 231.589844 177.910156 L 231.195312 178.078125 L 230.773438 178.320312 L 230.566406 178.933594 L 230.160156 178.933594 C 229.796875 179.277344 229.796875 179.277344 229.429688 179.714844 L 229.046875 180.152344 C 228.6875 180.570312 228.6875 180.570312 228.523438 181.183594 L 228.113281 181.183594 L 227.703125 182.207031 L 227.292969 182.207031 C 226.929688 182.65625 226.582031 183.121094 226.246094 183.597656 L 225.957031 183.996094 C 225.707031 184.34375 225.476562 184.707031 225.25 185.066406 L 225.25 185.679688 L 224.839844 185.679688 C 223.472656 188.097656 222.382812 190.488281 221.515625 193.121094 L 221.304688 193.75 C 220.453125 196.414062 220.261719 199.089844 220.273438 201.875 L 220.277344 202.289062 C 220.308594 208.308594 221.929688 213.824219 224.851562 219.074219 C 225.027344 219.394531 225.199219 219.71875 225.371094 220.042969 C 226.058594 221.34375 226.84375 222.527344 227.703125 223.71875 C 228.066406 224.246094 228.429688 224.777344 228.792969 225.308594 C 229.144531 225.777344 229.539062 226.167969 229.953125 226.578125 L 230.160156 226.988281 L 230.566406 226.988281 L 230.566406 227.398438 C 230.878906 227.707031 230.878906 227.707031 231.269531 228.011719 C 231.980469 228.582031 231.980469 228.582031 232.203125 229.035156 L 232.613281 229.035156 L 232.613281 229.441406 L 233.023438 229.441406 L 233.023438 229.851562 L 233.417969 230.03125 L 233.839844 230.261719 L 234.046875 230.667969 L 234.457031 230.667969 L 234.457031 231.078125 L 235.070312 231.078125 L 235.070312 231.488281 L 235.476562 231.488281 L 235.476562 231.898438 L 236.089844 231.898438 L 236.089844 232.304688 L 236.910156 232.511719 L 236.910156 232.917969 L 237.933594 233.125 L 237.933594 233.53125 L 238.546875 233.53125 L 238.546875 233.941406 C 238.839844 234.113281 239.132812 234.285156 239.429688 234.453125 L 239.925781 234.742188 C 240.394531 235.007812 240.394531 235.007812 241 234.964844 L 241 235.375 C 241.765625 235.789062 242.160156 235.988281 243.046875 235.988281 L 243.046875 236.394531 C 243.300781 236.5 243.558594 236.601562 243.816406 236.703125 L 244.246094 236.875 C 244.738281 237.050781 244.738281 237.050781 245.503906 237.007812 L 245.503906 237.417969 L 246.527344 237.417969 L 246.527344 237.828125 C 246.84375 237.929688 247.164062 238.035156 247.484375 238.132812 L 248.023438 238.304688 C 248.570312 238.441406 249.035156 238.464844 249.59375 238.441406 L 249.59375 238.851562 L 250.382812 239.007812 L 250.894531 239.109375 C 251.265625 239.183594 251.640625 239.257812 252.015625 239.332031 C 252.839844 239.496094 253.65625 239.660156 254.476562 239.84375 C 262.703125 241.65625 271.269531 240.621094 279.289062 238.34375 C 279.609375 238.253906 279.929688 238.164062 280.253906 238.078125 C 282.859375 237.351562 285.285156 236.183594 287.683594 234.949219 C 288.210938 234.679688 288.746094 234.429688 289.285156 234.171875 C 290.324219 233.652344 291.3125 233.066406 292.300781 232.460938 L 292.746094 232.1875 C 293.097656 231.964844 293.441406 231.730469 293.785156 231.488281 L 293.785156 231.078125 L 294.207031 230.9375 C 294.949219 230.605469 295.632812 230.195312 296.238281 229.648438 L 296.238281 229.238281 C 296.359375 229.183594 296.480469 229.125 296.605469 229.070312 C 298.003906 228.328125 299.113281 227.003906 300.230469 225.902344 L 300.621094 225.515625 L 300.988281 225.152344 L 301.320312 224.820312 L 301.558594 224.535156 L 301.558594 224.125 L 301.96875 224.125 C 302.3125 223.75 302.3125 223.75 302.582031 223.308594 L 302.582031 222.898438 L 302.992188 222.898438 C 303.367188 222.402344 303.71875 221.90625 304.066406 221.390625 L 304.371094 220.933594 C 307.292969 216.585938 309.828125 211.574219 310.558594 206.335938 L 310.765625 206.128906 C 310.84375 205.765625 310.910156 205.398438 310.96875 205.03125 L 311.070312 204.425781 C 311.394531 202.070312 311.429688 199.734375 311.429688 197.363281 L 311.429688 196.796875 C 311.425781 194.070312 311.363281 191.417969 310.765625 188.75 L 310.644531 188.203125 C 310.257812 186.484375 309.847656 184.839844 309.128906 183.226562 C 309.007812 182.878906 308.886719 182.53125 308.769531 182.179688 C 307.828125 179.578125 306.230469 176.765625 304.421875 174.640625 L 304.011719 174.640625 L 303.847656 174.140625 L 303.605469 173.617188 L 302.992188 173.410156 L 302.582031 172.59375 L 301.96875 172.390625 L 301.558594 171.570312 L 300.945312 171.367188 L 300.945312 170.957031 L 300.535156 170.957031 L 300.332031 170.34375 C 299.820312 170.09375 299.820312 170.09375 299.308594 169.9375 L 299.308594 169.527344 L 298.695312 169.527344 L 298.695312 169.117188 L 298.082031 169.117188 L 297.875 168.503906 L 297.261719 168.503906 L 297.261719 168.09375 L 296.238281 167.890625 L 296.238281 167.480469 L 295.625 167.480469 L 295.625 167.074219 L 294.808594 167.074219 L 294.808594 166.664062 C 293.179688 165.960938 291.550781 165.257812 289.898438 164.617188 L 289.191406 164.332031 C 273.523438 158.511719 253.144531 162.714844 239.453125 171.496094 M 126.640625 152.554688 L 127.140625 152.710938 C 128.832031 153.246094 130.5 153.820312 132.132812 154.527344 C 132.640625 154.746094 133.152344 154.957031 133.664062 155.164062 L 134.136719 155.355469 C 134.441406 155.476562 134.746094 155.601562 135.054688 155.722656 C 135.828125 156.035156 136.566406 156.410156 137.277344 156.847656 C 137.628906 157 137.980469 157.144531 138.339844 157.28125 C 139.300781 157.652344 139.300781 157.652344 139.734375 157.871094 L 139.734375 158.28125 L 140.207031 158.367188 C 140.757812 158.484375 140.757812 158.484375 141.371094 158.6875 L 141.371094 159.097656 L 141.882812 159.25 C 142.703125 159.542969 143.460938 159.921875 144.234375 160.324219 L 144.234375 160.734375 L 144.554688 160.785156 C 145.265625 161.003906 145.84375 161.375 146.484375 161.753906 L 146.484375 162.164062 L 147.097656 162.164062 L 147.097656 162.574219 L 148.121094 162.777344 L 148.121094 163.1875 L 148.9375 163.390625 L 148.9375 163.800781 L 149.554688 163.800781 L 149.554688 164.210938 L 149.960938 164.210938 L 149.960938 164.617188 L 150.574219 164.617188 L 150.574219 165.027344 L 151.394531 165.230469 L 151.394531 165.640625 L 152.007812 165.640625 L 152.007812 166.050781 L 152.417969 166.050781 L 152.417969 166.460938 L 152.8125 166.523438 L 153.234375 166.664062 L 153.441406 167.277344 L 153.9375 167.46875 L 154.464844 167.6875 C 154.730469 168.121094 154.730469 168.121094 154.871094 168.503906 L 155.28125 168.503906 L 155.28125 168.914062 L 155.691406 168.914062 L 155.691406 169.320312 L 156.085938 169.488281 L 156.507812 169.730469 L 156.714844 170.34375 L 157.328125 170.34375 L 157.480469 170.832031 L 157.738281 171.367188 C 158.148438 171.597656 158.148438 171.597656 158.554688 171.777344 L 158.757812 172.390625 L 159.167969 172.390625 L 159.167969 172.796875 L 159.578125 172.796875 C 159.910156 173.183594 159.910156 173.183594 160.191406 173.617188 L 160.191406 174.027344 L 160.601562 174.027344 C 160.933594 174.410156 160.933594 174.410156 161.214844 174.84375 L 161.214844 175.253906 L 161.625 175.253906 C 161.886719 175.566406 161.886719 175.566406 162.1875 176.007812 L 162.523438 176.5 L 162.875 177.027344 L 163.242188 177.570312 C 163.589844 178.089844 163.9375 178.613281 164.28125 179.136719 L 164.542969 179.527344 C 165.414062 180.851562 166.15625 182.222656 166.839844 183.648438 L 167.058594 184.101562 C 167.394531 184.824219 167.554688 185.277344 167.554688 186.089844 L 167.964844 186.089844 C 169.902344 191.757812 170.742188 197.078125 170.625 203.0625 L 170.617188 203.527344 C 170.558594 206.328125 170.066406 209.003906 169.382812 211.71875 C 169.246094 212.253906 169.125 212.796875 169.015625 213.339844 C 168.640625 215.027344 168.035156 216.65625 167.375 218.25 C 167.207031 218.660156 167.050781 219.070312 166.894531 219.480469 C 166.117188 221.519531 165.148438 223.417969 164.109375 225.332031 C 163.90625 225.703125 163.707031 226.078125 163.511719 226.453125 C 162.980469 227.460938 162.410156 228.371094 161.703125 229.265625 C 161.273438 229.839844 160.941406 230.449219 160.601562 231.078125 L 160.191406 231.078125 L 160.191406 231.691406 L 159.78125 231.691406 L 159.628906 232.039062 C 159.328125 232.59375 158.96875 233.046875 158.566406 233.53125 C 157.96875 234.265625 157.96875 234.265625 157.402344 235.027344 L 157.121094 235.375 L 156.714844 235.375 L 156.546875 235.734375 C 155.785156 237.164062 154.457031 238.230469 153.234375 239.257812 C 152.976562 239.488281 152.714844 239.71875 152.457031 239.949219 C 149.503906 242.523438 146.414062 244.777344 143.042969 246.765625 C 142.613281 247.019531 142.183594 247.277344 141.753906 247.535156 C 141.5 247.6875 141.242188 247.835938 140.984375 247.988281 L 140.308594 248.386719 C 139.734375 248.664062 139.734375 248.664062 138.914062 248.664062 L 138.914062 249.074219 C 138.792969 249.121094 138.671875 249.167969 138.546875 249.21875 C 137.648438 249.570312 136.765625 249.9375 135.898438 250.351562 C 128.054688 253.941406 119.53125 255.675781 110.9375 255.667969 L 110.476562 255.667969 C 107.632812 255.660156 104.769531 255.636719 101.988281 255.003906 C 100.792969 254.746094 99.621094 254.523438 98.40625 254.390625 L 98.40625 253.980469 L 97.820312 254.035156 C 96.925781 254.039062 96.226562 253.710938 95.414062 253.359375 C 94.851562 253.132812 94.308594 253.023438 93.703125 252.960938 L 93.703125 252.550781 L 93.277344 252.46875 L 92.71875 252.359375 L 92.164062 252.25 C 91.65625 252.140625 91.65625 252.140625 91.042969 251.9375 L 91.042969 251.527344 L 90.542969 251.476562 C 89.617188 251.28125 88.824219 250.910156 87.972656 250.503906 L 87.972656 250.097656 L 85.925781 249.484375 L 85.925781 249.074219 L 84.085938 248.460938 L 84.085938 248.050781 L 83.472656 248.050781 L 83.472656 247.644531 L 82.859375 247.644531 L 82.859375 247.234375 L 81.835938 247.03125 L 81.835938 246.621094 L 81.402344 246.46875 C 80.734375 246.175781 80.175781 245.820312 79.585938 245.394531 L 79.382812 244.984375 L 78.78125 244.691406 C 78.152344 244.371094 78.152344 244.371094 77.746094 243.757812 L 77.128906 243.554688 L 77.128906 243.144531 L 76.109375 242.734375 L 76.109375 242.324219 L 75.699219 242.324219 C 75.457031 242.09375 75.21875 241.855469 74.984375 241.609375 C 74.527344 241.15625 74.023438 240.753906 73.519531 240.347656 L 73.242188 240.078125 L 73.242188 239.667969 L 72.835938 239.667969 C 72.523438 239.359375 72.523438 239.359375 72.167969 238.9375 L 71.785156 238.488281 L 71.402344 238.03125 C 70.828125 237.351562 70.257812 236.679688 69.625 236.050781 C 69.210938 235.636719 68.855469 235.246094 68.539062 234.761719 L 68.539062 234.351562 L 67.925781 234.144531 C 67.507812 233.648438 67.507812 233.648438 67.066406 233.035156 L 66.625 232.421875 L 66.289062 231.898438 L 66.289062 231.488281 L 65.878906 231.488281 C 65.613281 231.144531 65.613281 231.144531 65.339844 230.695312 L 65.066406 230.25 C 64.855469 229.851562 64.855469 229.851562 64.855469 229.441406 L 64.445312 229.441406 L 64.222656 229.023438 C 63.710938 228.082031 63.199219 227.148438 62.644531 226.234375 C 61.226562 223.890625 59.941406 221.5625 58.921875 219.015625 L 58.710938 218.496094 C 58.503906 217.988281 58.300781 217.480469 58.105469 216.96875 L 57.816406 216.230469 C 57.136719 214.457031 56.523438 212.660156 55.980469 210.835938 C 55.890625 210.546875 55.800781 210.257812 55.707031 209.96875 C 55.257812 208.550781 54.976562 207.121094 54.714844 205.65625 L 54.585938 204.957031 C 54.460938 204.257812 54.335938 203.558594 54.21875 202.859375 L 54.113281 202.273438 C 53.847656 200.6875 53.738281 199.152344 53.730469 197.546875 C 53.730469 197.300781 53.726562 197.054688 53.726562 196.800781 C 53.722656 196.285156 53.722656 195.765625 53.722656 195.246094 C 53.71875 194.472656 53.707031 193.703125 53.699219 192.929688 C 53.667969 188.214844 54.3125 183.601562 55.855469 179.136719 L 56.011719 178.667969 C 56.796875 176.359375 57.769531 174.128906 58.921875 171.980469 L 59.300781 171.277344 C 59.578125 170.761719 59.863281 170.246094 60.148438 169.730469 L 60.558594 169.730469 L 60.558594 169.117188 L 60.96875 169.117188 L 61.136719 168.671875 C 61.378906 168.097656 61.636719 167.585938 61.992188 167.074219 L 62.402344 167.074219 L 62.566406 166.71875 C 62.816406 166.238281 63.101562 165.820312 63.421875 165.386719 L 63.742188 164.949219 L 64.039062 164.617188 L 64.445312 164.617188 L 64.582031 164.28125 C 64.949219 163.636719 65.441406 163.152344 65.96875 162.636719 L 66.300781 162.308594 C 72.203125 156.566406 79.824219 153.011719 87.710938 150.921875 C 90.171875 150.308594 92.640625 149.804688 95.164062 149.550781 C 95.761719 149.503906 95.761719 149.503906 96.363281 149.28125 C 96.757812 149.238281 97.15625 149.203125 97.550781 149.171875 L 98.273438 149.117188 C 107.882812 148.449219 117.441406 149.65625 126.640625 152.554688 M 97.589844 162.371094 L 96.8125 162.457031 C 94.097656 162.808594 91.417969 163.449219 88.792969 164.210938 L 88.292969 164.339844 C 85.996094 164.972656 83.902344 166.113281 81.835938 167.277344 L 81.125 167.667969 C 79.003906 168.828125 79.003906 168.828125 77.128906 170.34375 L 77.128906 170.753906 L 76.515625 170.957031 L 76.515625 171.367188 L 76.160156 171.519531 C 75.625 171.816406 75.257812 172.160156 74.828125 172.59375 L 74.390625 173.027344 L 74.0625 173.410156 L 74.0625 173.820312 L 73.652344 173.820312 C 72.988281 174.597656 72.402344 175.441406 71.8125 176.273438 L 71.4375 176.800781 C 70.257812 178.558594 69.40625 180.488281 68.539062 182.410156 L 68.21875 183.101562 C 67.828125 184.085938 67.554688 185.09375 67.285156 186.117188 L 67.121094 186.722656 C 65.339844 193.339844 65.339844 200.949219 67.03125 207.566406 C 67.5625 209.53125 68.09375 211.496094 68.988281 213.328125 C 69.160156 213.71875 69.265625 214.097656 69.355469 214.515625 L 69.765625 214.515625 L 69.835938 214.957031 C 70.234375 216.6875 71.347656 218.285156 72.273438 219.78125 L 72.542969 220.222656 C 72.765625 220.578125 73.003906 220.921875 73.242188 221.261719 L 73.652344 221.261719 L 73.824219 221.625 C 74.457031 222.835938 75.414062 223.882812 76.261719 224.945312 L 76.730469 225.53125 L 77.128906 225.964844 L 77.539062 225.964844 L 77.539062 226.375 C 77.8125 226.714844 77.8125 226.714844 78.152344 226.988281 L 78.5625 226.988281 L 78.5625 227.398438 C 78.96875 227.675781 79.378906 227.945312 79.789062 228.214844 L 79.996094 228.625 L 80.402344 228.625 L 80.402344 229.035156 L 81.425781 229.441406 L 81.425781 229.851562 L 82.449219 230.261719 L 82.449219 230.667969 L 83.023438 230.9375 C 83.675781 231.285156 83.675781 231.285156 83.960938 231.570312 C 84.375 231.980469 84.824219 232.25 85.328125 232.546875 L 85.871094 232.878906 C 86.308594 233.15625 86.308594 233.15625 86.746094 233.125 L 86.746094 233.53125 L 87.5625 233.53125 L 87.5625 233.941406 L 88.179688 233.941406 L 88.179688 234.351562 C 89.164062 234.820312 89.164062 234.820312 90.222656 234.964844 L 90.222656 235.375 L 90.890625 235.679688 L 91.261719 235.851562 C 91.714844 236.03125 91.714844 236.03125 92.472656 235.988281 L 92.472656 236.394531 C 93.925781 236.980469 95.363281 237.515625 96.886719 237.894531 C 97.382812 238.03125 97.382812 238.03125 97.871094 238.226562 C 105.164062 241.117188 113.875 241.1875 121.523438 240.078125 C 124.058594 239.691406 126.617188 239.253906 129.035156 238.398438 C 129.375 238.28125 129.714844 238.171875 130.054688 238.066406 C 134.539062 236.664062 138.765625 234.199219 142.445312 231.3125 C 143.007812 230.875 143.007812 230.875 143.621094 230.464844 L 143.621094 230.054688 L 143.953125 229.914062 C 144.605469 229.554688 145.113281 229.128906 145.664062 228.625 L 145.664062 228.214844 L 146.074219 228.214844 C 146.445312 227.867188 146.445312 227.867188 146.816406 227.421875 L 147.207031 226.976562 L 147.507812 226.578125 L 147.507812 226.171875 L 147.917969 226.171875 C 148.257812 225.792969 148.257812 225.792969 148.53125 225.351562 L 148.53125 224.945312 L 148.9375 224.945312 C 149.277344 224.527344 149.601562 224.09375 149.910156 223.652344 L 150.191406 223.257812 C 150.828125 222.339844 151.398438 221.410156 151.910156 220.417969 C 152.128906 219.996094 152.355469 219.578125 152.59375 219.160156 C 153.71875 217.167969 154.550781 215.097656 155.316406 212.945312 C 155.457031 212.558594 155.597656 212.171875 155.742188 211.785156 C 157.351562 207.117188 157.644531 201.652344 156.855469 196.796875 C 156.589844 195.527344 156.253906 194.289062 155.894531 193.042969 L 155.761719 192.511719 C 155.121094 190.03125 153.671875 187.6875 152.417969 185.476562 L 152.101562 184.90625 L 151.804688 184.453125 L 151.394531 184.453125 L 151.242188 184.015625 C 150.953125 183.355469 150.589844 182.824219 150.167969 182.242188 L 149.730469 181.636719 L 149.347656 181.183594 L 148.9375 181.183594 L 148.796875 180.851562 C 148.4375 180.195312 148.011719 179.691406 147.507812 179.136719 L 147.097656 179.136719 L 146.894531 178.523438 L 146.484375 178.523438 L 146.484375 178.117188 L 146.074219 178.117188 L 146.074219 177.707031 L 145.664062 177.707031 L 145.664062 177.296875 L 145.167969 177.132812 L 144.644531 176.886719 L 144.4375 176.273438 L 144.027344 176.273438 L 143.824219 175.660156 L 143.210938 175.660156 L 143.210938 175.253906 L 142.800781 175.253906 L 142.800781 174.84375 L 142.1875 174.84375 L 142.1875 174.433594 L 141.777344 174.433594 L 141.777344 174.027344 L 141.164062 174.027344 L 140.960938 173.410156 L 140.347656 173.410156 L 140.347656 173.003906 L 139.324219 172.796875 L 139.324219 172.390625 L 138.914062 172.390625 L 138.914062 171.980469 L 137.890625 171.777344 L 137.890625 171.367188 L 136.867188 171.164062 L 136.867188 170.753906 L 135.4375 170.34375 L 135.4375 169.9375 L 133.59375 169.320312 L 133.59375 168.914062 L 133.128906 168.726562 C 132.09375 168.300781 131.074219 167.871094 130.078125 167.355469 C 129.316406 166.964844 128.566406 166.671875 127.75 166.417969 C 127.191406 166.234375 126.65625 166.015625 126.117188 165.792969 C 120.765625 163.734375 115.136719 162.734375 109.453125 162.164062 C 109.0625 162.125 109.0625 162.125 108.664062 162.082031 C 104.964844 161.757812 101.265625 161.925781 97.589844 162.371094 " fill-opacity="1" fill-rule="nonzero"/><path fill="#264663" d="M 271.28125 170.957031 L 271.914062 171.140625 C 273.617188 171.667969 275.203125 172.429688 276.804688 173.207031 L 276.804688 173.617188 L 277.828125 173.820312 L 277.828125 174.230469 L 278.851562 174.433594 L 278.851562 174.84375 L 279.195312 175.007812 C 279.710938 175.273438 280.207031 175.542969 280.691406 175.867188 L 280.691406 176.273438 L 281.101562 176.273438 L 281.101562 176.683594 L 281.714844 176.683594 C 282.085938 177.027344 282.085938 177.027344 282.46875 177.476562 L 282.855469 177.921875 L 283.144531 178.320312 L 283.144531 178.730469 L 283.554688 178.730469 C 283.921875 179.191406 284.269531 179.671875 284.605469 180.160156 L 284.90625 180.609375 C 286.566406 183.097656 287.683594 185.660156 288.464844 188.542969 C 288.511719 188.722656 288.5625 188.898438 288.609375 189.078125 C 289.140625 191.234375 289.117188 193.472656 289.117188 195.675781 L 289.125 196.464844 C 289.128906 198.15625 288.976562 199.761719 288.667969 201.425781 L 288.574219 201.976562 C 287.894531 205.75 286.433594 209.144531 284.578125 212.46875 L 284.242188 213.082031 L 283.964844 213.492188 L 283.554688 213.492188 L 283.402344 213.9375 C 283.117188 214.578125 282.769531 215.054688 282.328125 215.601562 L 281.894531 216.148438 L 281.507812 216.558594 L 281.101562 216.558594 L 280.933594 216.929688 C 280.691406 217.378906 280.464844 217.667969 280.078125 217.992188 L 279.667969 217.992188 L 279.667969 218.398438 C 277.640625 220.140625 275.363281 221.441406 272.917969 222.488281 C 272.761719 222.5625 272.605469 222.636719 272.441406 222.714844 C 269.746094 223.917969 266.730469 224.027344 263.824219 224 L 263.355469 223.996094 C 261.042969 223.988281 258.808594 223.855469 256.550781 223.308594 L 256.550781 222.898438 L 256 222.847656 C 254.785156 222.679688 253.621094 222.253906 252.457031 221.875 L 252.457031 221.46875 L 250.617188 220.855469 L 250.617188 220.445312 L 249.59375 220.242188 L 249.59375 219.832031 L 248.980469 219.832031 L 248.980469 219.421875 L 248.496094 219.230469 C 247.957031 219.015625 247.957031 219.015625 247.546875 218.808594 L 247.546875 218.398438 L 247.140625 218.398438 L 247.140625 217.992188 L 246.769531 217.8125 C 246.320312 217.582031 246.320312 217.582031 245.707031 217.171875 L 245.707031 216.765625 L 245.296875 216.765625 C 244.953125 216.429688 244.953125 216.429688 244.570312 215.984375 L 244.183594 215.546875 C 243.867188 215.128906 243.867188 215.128906 243.660156 214.515625 L 243.253906 214.515625 C 242.910156 214.054688 242.582031 213.582031 242.269531 213.097656 L 241.988281 212.667969 C 239.945312 209.519531 238.230469 206.042969 237.394531 202.375 L 237.269531 201.84375 C 237.140625 201.296875 237.023438 200.75 236.910156 200.199219 L 236.792969 199.640625 C 236.480469 198.011719 236.429688 196.40625 236.4375 194.757812 C 236.4375 194.3125 236.433594 193.863281 236.425781 193.414062 C 236.417969 191.441406 236.660156 189.648438 237.113281 187.726562 C 237.179688 187.425781 237.242188 187.125 237.304688 186.828125 C 238.074219 183.535156 239.460938 180.859375 241.410156 178.117188 L 241.820312 177.5 L 242.230469 177.5 L 242.371094 177.15625 C 242.714844 176.550781 243.15625 176.128906 243.660156 175.660156 L 244.089844 175.246094 C 246.648438 172.828125 249.882812 171.121094 253.300781 170.273438 C 259.167969 168.953125 265.523438 169.21875 271.28125 170.957031 M 115.082031 169.511719 C 119.652344 169.386719 123.890625 169.808594 128.070312 171.777344 C 128.328125 171.882812 128.582031 171.988281 128.839844 172.09375 C 129.441406 172.359375 129.988281 172.628906 130.527344 173.003906 L 130.527344 173.410156 L 130.972656 173.578125 C 131.550781 173.820312 132.058594 174.082031 132.574219 174.433594 L 132.574219 174.84375 L 132.980469 174.84375 L 132.980469 175.253906 L 133.390625 175.253906 L 133.390625 175.660156 L 134.003906 175.660156 C 136.503906 178.207031 138.511719 181.460938 139.527344 184.863281 C 139.636719 185.171875 139.75 185.476562 139.859375 185.785156 C 140.230469 186.882812 140.386719 188.015625 140.550781 189.15625 L 140.667969 189.886719 C 141.363281 195.347656 140.875 200.960938 138.914062 206.128906 C 138.714844 206.566406 138.5 206.996094 138.277344 207.417969 C 138.054688 207.851562 137.886719 208.292969 137.726562 208.75 C 137.332031 209.757812 136.796875 210.625 136.203125 211.523438 C 135.875 212.015625 135.570312 212.511719 135.269531 213.019531 L 134.824219 213.695312 L 134.414062 213.695312 L 134.273438 214.132812 C 133.847656 215.066406 133.148438 215.890625 132.367188 216.558594 L 131.957031 216.558594 L 131.957031 216.96875 L 131.550781 216.96875 L 131.550781 217.378906 C 131.132812 217.726562 130.707031 218.0625 130.269531 218.386719 L 129.90625 218.660156 C 129.675781 218.839844 129.441406 219.011719 129.203125 219.1875 C 128.941406 219.382812 128.6875 219.585938 128.433594 219.792969 L 128.070312 220.035156 L 127.457031 220.035156 L 127.457031 220.445312 C 124.484375 221.964844 121.746094 223.085938 118.457031 223.71875 L 117.886719 223.828125 C 117.144531 223.933594 116.414062 223.957031 115.664062 223.964844 L 115.214844 223.964844 C 114.898438 223.96875 114.582031 223.96875 114.269531 223.972656 C 113.796875 223.972656 113.328125 223.980469 112.859375 223.984375 C 110.097656 224.003906 107.335938 223.746094 104.761719 222.667969 L 104.347656 222.503906 C 103.859375 222.3125 103.378906 222.113281 102.90625 221.875 L 102.90625 221.46875 L 101.679688 221.261719 L 101.679688 220.855469 L 101.324219 220.777344 C 100.859375 220.648438 100.46875 220.46875 100.042969 220.242188 L 100.042969 219.832031 L 99.429688 219.832031 L 99.429688 219.421875 L 99.019531 219.421875 L 98.613281 218.808594 L 97.996094 218.605469 C 97.246094 217.910156 96.605469 217.140625 95.953125 216.355469 L 95.464844 215.878906 C 93.242188 213.621094 91.898438 210.832031 90.632812 207.972656 L 90.410156 207.476562 C 89.941406 206.382812 89.601562 205.257812 89.277344 204.113281 L 89.148438 203.667969 C 88.480469 201.230469 88.3125 198.882812 88.316406 196.367188 C 88.320312 195.84375 88.3125 195.324219 88.308594 194.800781 C 88.300781 192.703125 88.484375 190.785156 88.996094 188.75 L 89.1875 187.980469 C 89.625 186.300781 90.261719 184.773438 91.042969 183.226562 L 91.34375 182.625 C 92.441406 180.523438 93.933594 178.824219 95.542969 177.09375 L 95.871094 176.738281 C 96.09375 176.503906 96.328125 176.285156 96.566406 176.070312 L 96.976562 176.070312 L 96.976562 175.660156 C 97.367188 175.367188 97.765625 175.085938 98.175781 174.816406 L 98.851562 174.367188 L 99.429688 174.027344 L 99.839844 174.027344 L 99.839844 173.617188 C 103.785156 171.625 107.738281 170.359375 112.113281 169.730469 L 112.769531 169.636719 C 113.539062 169.554688 114.308594 169.535156 115.082031 169.511719 " fill-opacity="1" fill-rule="nonzero"/></svg>