<svg xmlns="http://www.w3.org/2000/svg" xmlns:xlink="http://www.w3.org/1999/xlink" width="500" zoomAndPan="magnify" viewBox="0 0 375 374.999991" height="500" preserveAspectRatio="xMidYMid meet" version="1.0"><defs><clipPath id="0bc2d8b072"><path d="M 3.875 3.875 L 371.375 3.875 L 371.375 371.375 L 3.875 371.375 Z M 3.875 3.875 " clip-rule="nonzero"/></clipPath><clipPath id="4fe62136e6"><path d="M 50 218 L 325 218 L 325 371.375 L 50 371.375 Z M 50 218 " clip-rule="nonzero"/></clipPath></defs><g clip-path="url(#0bc2d8b072)"><path fill="#b3b3b3" d="M 371.390625 187.632812 C 371.390625 234.640625 353.75 277.515625 324.699219 310.011719 C 291.058594 347.683594 242.117188 371.386719 187.632812 371.386719 C 133.152344 371.386719 84.195312 347.683594 50.566406 310.011719 C 21.519531 277.515625 3.878906 234.640625 3.878906 187.632812 C 3.878906 86.152344 86.140625 3.875 187.632812 3.875 C 289.113281 3.875 371.390625 86.152344 371.390625 187.632812 " fill-opacity="1" fill-rule="nonzero"/></g><path fill="#f2f2f2" d="M 187.632812 221.480469 C 220.9375 221.480469 251.273438 183.800781 251.273438 142.425781 C 251.273438 103.335938 243.710938 64.679688 187.632812 64.679688 C 131.550781 64.679688 123.988281 103.335938 123.988281 142.425781 C 123.988281 183.800781 154.324219 221.480469 187.632812 221.480469 " fill-opacity="1" fill-rule="nonzero"/><g clip-path="url(#4fe62136e6)"><path fill="#f2f2f2" d="M 324.699219 310.011719 C 291.058594 347.683594 242.117188 371.386719 187.632812 371.386719 C 133.152344 371.386719 84.195312 347.683594 50.566406 310.011719 C 49.988281 287.316406 65.101562 234.734375 142.183594 218.550781 C 155.371094 232.007812 171.601562 239.617188 187.632812 239.617188 C 203.667969 239.617188 219.882812 232.007812 233.066406 218.550781 C 310.167969 234.734375 325.269531 287.316406 324.699219 310.011719 " fill-opacity="1" fill-rule="nonzero"/></g></svg>